<?xml version="1.0" standalone="no"?>
<!DOCTYPE svg PUBLIC "-//W3C//DTD SVG 1.1//EN" "http://www.w3.org/Graphics/SVG/1.1/DTD/svg11.dtd" >
<svg xmlns="http://www.w3.org/2000/svg" xmlns:xlink="http://www.w3.org/1999/xlink" version="1.1">
<metadata></metadata>
<defs>
<font id="sauber_scriptregular" horiz-adv-x="1263" >
<font-face units-per-em="2048" ascent="1638" descent="-410" />
<missing-glyph horiz-adv-x="450" />
<glyph horiz-adv-x="0" />
<glyph horiz-adv-x="682" />
<glyph unicode=" "  horiz-adv-x="450" />
<glyph unicode="&#x09;" horiz-adv-x="450" />
<glyph unicode="&#xa0;" horiz-adv-x="450" />
<glyph unicode="!" horiz-adv-x="735" d="M131 104q0 54 48 94t110 40q57 0 91 -32t34 -87q0 -53 -48.5 -92t-109.5 -39q-58 0 -91.5 30.5t-33.5 85.5zM365 414q0 72 253 544q151 274 230 388q82 116 143 116q52 0 79.5 -26t27.5 -64q0 -20 -10.5 -42t-43.5 -70l-67 -99l-113 -157l-151 -222l-109 -164l-78 -122 q-46 -73 -73 -105t-43 -26q-45 0 -45 49z" />
<glyph unicode="&#x22;" horiz-adv-x="970" d="M477 1028q9 26 96 199q84 160 119 215q71 109 148 53q62 -41 16 -123q-150 -230 -264 -385q-53 -72 -103 -39q-34 26 -12 80zM782 993q3 19 123 209q130 210 158 246q82 117 160 55q66 -45 14 -127q-53 -83 -180 -231q-135 -153 -164 -193q-53 -65 -102 -32q-35 28 -9 73 z" />
<glyph unicode="#" horiz-adv-x="1421" d="M199 389q0 65 75 74q86 4 215 4l175 260h-140q-88 0 -88 66q0 56 76 65q86 6 244 6h4q117 171 139 193q37 39 70 22q42 -25 4 -90q-22 -42 -74 -125q199 0 258 -2q73 110 100 137q38 41 70 21q43 -21 6 -94l-39 -64q21 0 45 -0.5t40 -1.5h16q73 -6 73 -53q0 -42 -53 -51 q-29 -8 -192 -17l-168 -272h46t46 -0.5t38.5 -1t28.5 -0.5h11q73 -3 73 -51q0 -40 -55 -52q-79 -13 -266 -22q-68 -109 -121 -180q-43 -58 -90 -31q-56 35 -8 113l55 92q-42 -2 -248 -10q-55 -92 -106 -162q-46 -60 -94 -31q-64 37 -11 123l41 65h-102q-94 0 -94 70z M651 467h248l170 268q-246 -6 -254 -6z" />
<glyph unicode="$" horiz-adv-x="1443" d="M20 266q0 67 48.5 107.5t117.5 40.5q54 0 54 -35q0 -9 -17.5 -54.5t-17.5 -68.5q0 -101 164 -113q115 235 280 541q-241 43 -241 213q0 169 176 289q180 124 426 164q137 233 194 233q26 0 39 -16q14 -14 14 -31q0 -14 -90 -170q10 2 45 2q40 0 80 -6q124 201 170 201 q19 0 33 -11t14 -24q0 -19 -98 -193q75 -26 120.5 -71.5t45.5 -96.5q0 -57 -36 -94t-83 -37q-55 0 -55 45q0 12 12 45.5t12 47.5q0 46 -75 61l-252 -465q147 -26 223 -93t76 -192q0 -137 -103 -249q-184 -203 -583 -254q-50 -108 -78 -154q-21 -37 -39 -37q-72 0 -72 59 q0 33 31 121h-20q-13 0 -99 4q-49 -104 -71.5 -140t-40.5 -36q-60 0 -60 58q0 52 37 139q-70 16 -123.5 44t-82.5 57t-47 63.5t-23 58.5t-5 47zM518 143q23 0 117 13l260 503q-66 2 -115 11zM616 907q0 -63 103 -90q5 14 10 21l172 319q-131 -51 -208 -117t-77 -133z M813 197q181 52 286 140t105 195q0 88 -168 115zM848 797l117 -9q167 304 249 445q-72 -9 -139 -23q-160 -281 -227 -413z" />
<glyph unicode="%" horiz-adv-x="2025" d="M270 842q0 184 103 311t215 127q14 0 18 -2q80 156 281 156q126 0 191 -74t65 -209q0 -148 -88 -297q-86 -148 -217 -242q-133 -92 -254 -92q-143 0 -228 94q-86 95 -86 228zM444 -53q0 29 93 139q87 105 399 451q53 60 138 152.5t116 127.5q446 499 496 547 q82 82 118 82q66 0 66 -43q0 -24 -78 -113l-104 -116l-172 -191l-234 -266l-287 -328q474 438 746 438q293 0 293 -272q0 -139 -76 -278.5t-197 -235.5q-142 -115 -274 -115q-139 0 -222 84t-83 217q0 113 57 205q-137 -99 -358 -276q-235 -188 -306 -242q-39 -39 -65 -39 q-66 0 -66 72zM455 768q0 -115 100 -115q80 0 182 99q108 102 176 229q74 133 74 227q0 48 -25 74.5t-65 26.5q-39 3 -79.5 -23t-72 -64t-58.5 -76.5t-47.5 -64t-29.5 -22.5q-30 0 -39 26q-116 -146 -116 -317zM1352 162q0 -44 27 -71.5t71 -27.5q130 0 285 168 q157 171 157 340q0 69 -29 98t-89 29q-100 0 -285 -102h6q74 0 74 -61q0 -49 -109 -142q-45 -38 -76.5 -100.5t-31.5 -130.5z" />
<glyph unicode="&#x26;" horiz-adv-x="1241" d="M68 303q0 95 52.5 180t137.5 138q156 100 299 124q-50 11 -83.5 56t-33.5 106q0 137 189 258q194 122 440 131q194 318 256 318q35 0 57.5 -19.5t22.5 -40.5q0 -27 -94 -170l-66 -100q93 -22 144 -71.5t51 -106.5q0 -62 -45 -96.5t-97 -34.5q-28 0 -46.5 14t-18.5 33 q0 29 41 59q43 30 43 52q0 36 -115 36q-201 0 -397 -106q-197 -108 -197 -201q0 -53 78 -53q49 0 117 8t121 8q80 0 80 -61q0 -64 -105 -70q-241 -21 -412 -125q-172 -102 -172 -272q0 -106 131 -133q135 185 273.5 291t263.5 106q30 0 80 -16q57 -20 102 -70.5t45 -116.5 q0 -113 -190 -233q-189 -119 -479 -119h-4q-93 -131 -191 -305q-16 -29 -44 -41.5t-50 -5.5q-33 11 -42 41.5t9 73.5q60 135 135 256q-136 30 -211 100.5t-75 177.5zM657 160q170 21 289 100q123 82 123 139q0 43 -39 43q-136 0 -373 -282z" />
<glyph unicode="'" horiz-adv-x="630" d="M500 1028q9 26 96 199q84 160 119 215q71 108 147 53q63 -41 17 -123l-113 -172l-152 -213q-53 -71 -102 -39q-34 26 -12 80z" />
<glyph unicode="(" horiz-adv-x="704" d="M279 223q0 275 81 508q81 235 207 395q130 164 264 273t252 164t197 55q68 0 68 -47q0 -23 -48 -51q-20 -12 -139 -76q-95 -53 -164 -111q-159 -135 -278 -311q-78 -114 -127 -227q-56 -124 -90.5 -285.5t-34.5 -327.5q0 -242 61 -405q23 -57 23 -68q0 -14 -18.5 -28.5 t-40.5 -14.5q-55 0 -93 68q-120 211 -120 489z" />
<glyph unicode=")" horiz-adv-x="704" d="M-328 -297q0 24 47 51l140 74q95 53 164 111q96 80 177.5 177.5t166.5 235.5q88 145 138 338t50 400q0 131 -19.5 239t-46.5 166q-20 50 -20 68q0 14 18.5 28.5t40.5 14.5q54 0 95 -68q118 -208 118 -487q0 -201 -45 -377q-73 -309 -278 -572q-85 -108 -188.5 -196.5 t-195 -141t-168.5 -80.5t-126 -28q-68 0 -68 47z" />
<glyph unicode="*" horiz-adv-x="700" d="M424 1075q-24 37 27 76l116 86l-96 66q-69 46 -43 79q13 30 66 9q19 -7 112 -56q2 31 2 103q3 78 49 78q30 0 39 -54l15 -125q51 34 149 90q70 46 94 9q21 -24 -22 -70q-11 -14 -156 -121l109 -57q74 -48 47 -101q-22 -36 -82 -8q-7 3 -119 62q8 -47 8 -90 q-4 -63 -21 -89t-52 -26q-55 0 -58 84q0 5 -0.5 17.5t-1.5 36t-2 46.5l-61 -45q-85 -55 -119 0z" />
<glyph unicode="+" d="M254 586q0 61 70 67q111 6 256 6h104q129 288 174 347q41 53 78 53q41 0 41 -45q0 -28 -27 -101q-12 -39 -45 -106l-61 -148q276 0 330 -4q69 -3 69 -51q0 -13 -3 -22t-11 -15t-13.5 -8.5t-19.5 -7.5q-75 -15 -408 -29q-1 -3 -53 -137q-74 -187 -100 -231 q-27 -71 -86 -56q-77 18 -47 105q58 163 121 313q-163 -6 -271 -6q-54 0 -76 18t-22 58z" />
<glyph unicode="," horiz-adv-x="436" d="M-86 -244q0 30 49 45q217 85 264 232q-94 21 -94 100q0 56 47.5 96.5t108.5 40.5q58 0 93.5 -37t35.5 -102q0 -156 -168 -281q-166 -129 -291 -129q-26 0 -35.5 8t-9.5 27z" />
<glyph unicode="-" horiz-adv-x="837" d="M289 543q0 65 88 71q110 4 180 4q114 0 231 -6q80 -3 80 -57q0 -40 -51 -55q-31 -8 -190 -25q-178 -16 -219 -16q-66 0 -92.5 20t-26.5 64z" />
<glyph unicode="." horiz-adv-x="436" d="M96 104q0 53 48.5 93.5t109.5 40.5q60 0 93.5 -31.5t33.5 -87.5q0 -53 -48.5 -92t-109.5 -39q-60 0 -93.5 30.5t-33.5 85.5z" />
<glyph unicode="/" horiz-adv-x="778" d="M-199 -197q0 32 84 142q51 67 394 481l325 391q448 543 526 627q94 102 134 102q37 0 53 -16q32 -25 0 -74q-18 -33 -178 -225q-9 -11 -73.5 -87t-113.5 -136q-84 -100 -252 -308q-77 -96 -209 -258t-151 -186q-141 -183 -231 -291q-23 -29 -50 -62t-52 -62.5t-34 -39.5 q-39 -42 -61 -58.5t-41 -16.5q-70 0 -70 77z" />
<glyph unicode="0" horiz-adv-x="1302" d="M131 406q0 203 104 385.5t291 320.5q78 59 125 68q156 211 449 211q146 0 254 -91q106 -87 106 -262q0 -246 -131 -499q-132 -254 -348 -426q-218 -170 -438 -170q-93 0 -166 29.5t-118.5 76.5t-75 109.5t-41 123.5t-11.5 124zM344 330q0 -121 48 -184.5t130 -63.5 q110 0 248 111q139 112 250 262q109 147 188 321q76 168 76 277q0 114 -40 163.5t-124 49.5q-143 0 -258 -127q-108 -122 -162.5 -284t-54.5 -323q0 -20 -13 -36.5t-32 -16.5q-49 0 -70 62q-20 61 -20 133q0 112 20 221q-94 -135 -140 -265t-46 -300z" />
<glyph unicode="1" horiz-adv-x="931" d="M172 858q0 65 57 68q232 18 387.5 64.5t268.5 139.5q93 147 141 205t74 58q127 0 127 -70q0 -24 -45 -98l-146 -240q-91 -149 -190 -323q-124 -216 -191 -343q-53 -103 -116 -213q-52 -96 -84 -128.5t-72 -30.5q-113 0 -113 102q0 65 101 240l92 155l117 189l98 160 l100 161q-244 -198 -487 -198q-119 0 -119 102z" />
<glyph unicode="2" horiz-adv-x="1083" d="M-80 129q0 74 68 121q87 53 215 127l250 145q93 53 231 148q130 87 211 159q88 77 142.5 159.5t54.5 152.5q0 52 -27 83t-80 31q-121 0 -237.5 -99.5t-204.5 -272.5q-15 -30 -27 -41t-35 -11q-54 0 -84 44t-30 118q0 143 161 273q165 133 381 133q157 0 258 -94 q103 -95 103 -248q8 -107 -69.5 -212t-205.5 -194q-52 -39 -192 -114q-26 -14 -213 -109l-242 -113q-35 -16 -89.5 -41t-90.5 -42t-62 -31v-4q181 32 459 51q267 18 367 18q59 0 59 -94q0 -103 -82 -152q-80 -47 -174 -47q-31 0 -164 17q-117 15 -221 18q-95 6 -311 -10 q-58 -6 -88.5 32t-30.5 99z" />
<glyph unicode="3" horiz-adv-x="1073" d="M-18 246q0 76 50.5 124t117.5 48q47 0 47 -41q0 -25 -27 -66q-27 -37 -27 -67q0 -109 174 -109q185 0 361 135t176 291q0 110 -82 113q-58 2 -145 -25q-65 -24 -107 -24q-37 0 -48 31.5t15 50.5l545 417q-203 -43 -330 -43q-121 0 -178 43t-57 111q0 57 28 100t78 43 q1 0 11 -2t37 -8.5t51 -11.5q99 -21 233 -21q35 0 72 0.5t70.5 1.5t66 2.5t60.5 3t53 2.5t44.5 2.5t33.5 2.5t21 2h7q66 0 66 -54q0 -45 -64 -79l-569 -431h2q115 -3 209 -73q96 -72 96 -213q0 -155 -108 -287q-106 -126 -261 -196t-313 -70q-120 0 -208 30.5t-130 83.5 q-71 95 -71 183z" />
<glyph unicode="4" horiz-adv-x="1177" d="M207 772q0 34 59 115q10 14 60 76l84 102l102 125l84 104q116 140 147 131q152 0 152 -75q0 -49 -277 -379l-114 -135q-131 -145 -131 -168q0 -27 18 -27q62 0 168 23q83 17 168 49q90 36 192.5 106t176.5 158q139 219 186 219q121 0 121 -70q0 -28 -51 -120l-62 -109 l-100 -170l-125 -217q-41 -70 -96 -172q-25 -45 -127 -238q-47 -89 -78.5 -121t-71.5 -32q-112 0 -112 102q0 44 32 109q41 87 68 133l88 145q62 98 66 107l106 182q-239 -213 -494 -213q-82 0 -161 70q-78 72 -78 190z" />
<glyph unicode="5" horiz-adv-x="1075" d="M-16 223q0 74 42.5 125t90.5 51q61 0 61 -39q0 -10 -19.5 -59.5t-19.5 -73.5q0 -118 148 -118q188 0 362 137q178 138 178 299q0 151 -153 151q-134 0 -297 -100q-63 -29 -82 -29q-25 0 -36.5 27.5t1.5 46.5l436 737q16 29 39 29q2 0 40.5 -11.5t110 -22.5t152.5 -11 q60 0 113.5 4t88 10t59.5 11.5t37.5 9.5t13.5 4q41 0 41 -39q0 -28 -37 -68q-79 -80 -199.5 -135t-253.5 -55q-142 0 -199 31l-243 -383l4 -2q121 65 244 65q154 0 248 -93t94 -243q0 -124 -65 -235.5t-171 -182.5q-104 -70 -223 -109.5t-228 -39.5q-112 0 -194.5 33.5 t-120.5 89.5q-63 99 -63 188z" />
<glyph unicode="6" horiz-adv-x="1159" d="M133 367q0 225 146 471q148 248 370 405q226 160 430 160q128 0 209.5 -47.5t81.5 -132.5q6 -73 -62 -116q-50 -32 -91 -22q-28 7 -27 33q0 11 16.5 52t16.5 55q0 61 -86 61q-84 0 -193 -58.5t-215 -158.5q-107 -101 -197 -239t-133 -275q150 246 449 246q134 0 219 -88 q88 -88 88 -213q0 -126 -60 -237t-157 -181q-94 -66 -199 -102.5t-202 -36.5q-198 0 -301 108.5t-103 315.5zM360 231q10 -83 45.5 -118t104.5 -35q138 0 281 155q145 157 145 330q0 55 -37 87t-104 32q-86 5 -189.5 -64t-175.5 -178.5t-70 -208.5z" />
<glyph unicode="7" horiz-adv-x="899" d="M131 14q0 65 128.5 252.5t393.5 526.5q178 227 293 342q-263 -68 -422 -68q-243 0 -243 188q0 56 20 89.5t53 33.5q4 0 51 -11t133.5 -22.5t186.5 -11.5q235 0 464 37l13 2q30 0 52 -24.5t22 -55.5q0 -40 -55 -67l-43 -17q-173 -207 -373 -503l-172 -256 q-58 -90 -124.5 -194.5t-90.5 -141.5q-79 -122 -109 -154q-19 -24 -35 -31.5t-41 -7.5q-102 0 -102 94z" />
<glyph unicode="8" horiz-adv-x="1101" d="M76 264q0 158 113.5 265.5t367.5 215.5q-131 155 -131 312t156 268t362 111q142 0 246 -78q100 -75 100 -178q0 -73 -69 -127q20 -11 20 -43q0 -38 -31.5 -89t-79.5 -87q-116 -89 -280 -175q176 -185 176 -313q0 -167 -162 -289q-164 -123 -370 -123q-176 0 -297 89 t-121 241zM272 217q0 -63 45 -102t127 -39q137 0 244 94q109 95 109 215q0 87 -99 201q-246 -115 -317 -172q-106 -87 -109 -197zM614 1008q0 -84 97 -201q238 95 356 188q-25 4 -40 21.5t-15 40.5q0 26 57 71t57 80q0 58 -108 58q-166 0 -287 -80q-117 -80 -117 -178z" />
<glyph unicode="9" horiz-adv-x="1148" d="M14 176q0 69 39.5 108.5t91.5 39.5q64 0 64 -62q0 -11 -5 -44.5t-5 -45.5q0 -47 29 -72.5t83 -25.5q178 0 398 217q223 220 311 491q-149 -245 -442 -245q-133 0 -222 92q-86 95 -86 221q0 232 185 391q183 162 405 162q195 0 302.5 -121t107.5 -332q0 -148 -76 -325 q-74 -177 -197 -330q-123 -152 -299 -258q-177 -103 -354 -103q-128 0 -229 64t-101 178zM492 786q0 -55 36 -86.5t103 -31.5q141 0 284 143q145 145 148 303q-7 85 -41.5 120.5t-103.5 35.5q-139 0 -283 -156q-143 -152 -143 -328z" />
<glyph unicode=":" horiz-adv-x="522" d="M120 173q-8 31 3.5 65.5t42.5 58.5q48 40 109.5 41t91.5 -31q24 -21 32 -53t-3.5 -67.5t-43.5 -59.5q-48 -36 -108 -37t-94 31q-22 21 -30 52zM268 627q0 53 48 93t110 40q57 0 91 -32t34 -87q2 -40 -28 -72t-71 -46t-84.5 -9.5t-66.5 29.5q-33 29 -33 84z" />
<glyph unicode=";" horiz-adv-x="522" d="M-104 -217q0 30 51 45q218 92 262 233q-41 6 -67.5 32t-26.5 67q0 56 47 96.5t108 40.5q58 0 93.5 -37t35.5 -102q0 -156 -168 -281q-167 -129 -290 -129q-45 0 -45 35zM268 627q0 53 48 93t110 40q57 0 91 -32t34 -87q2 -40 -28 -72t-71 -46t-84.5 -9.5t-66.5 29.5 q-33 29 -33 84z" />
<glyph unicode="&#x3c;" d="M379 569q0 83 100 123q55 23 250 111q391 186 453 186q65 0 65 -49q0 -27 -121 -98q-151 -89 -290 -160q-167 -86 -222 -119q86 -80 201 -201q67 -70 88 -99t21 -52q0 -19 -17 -36t-35 -17q-50 0 -110 57q-93 77 -248 195q-73 53 -107 89t-28 70z" />
<glyph unicode="=" d="M256 424q0 56 70 65q164 15 399 15q261 0 358 -17q20 -5 26.5 -7t15.5 -7t18 -14q15 -13 14 -37t-24 -37q-36 -16 -125 -23l-103 -4q-20 -1 -73 -2t-78 -2l-189 -6q-31 -2 -229 -2q-34 0 -57 20.5t-23 57.5zM403 698q0 62 66 68q91 6 229 6q418 0 500 -4q64 -6 64 -51 q0 -38 -43 -53q-59 -12 -322 -27q-246 -14 -403 -14q-91 0 -91 75z" />
<glyph unicode="&#x3e;" d="M301 276q0 28 111 93q148 84 274 145q164 83 213 115q-10 10 -106 92q-103 88 -123 108q-75 70 -99 99.5t-24 52.5q0 18 20 35.5t39 17.5q52 0 127 -57q90 -67 152 -111q97 -69 119 -86q37 -26 71 -57q35 -30 47.5 -51.5t12.5 -48.5q0 -83 -101 -123q-64 -25 -239 -107 q-364 -166 -428 -166q-66 0 -66 49z" />
<glyph unicode="?" horiz-adv-x="993" d="M211 104q0 53 48.5 93.5t109.5 40.5q60 0 93.5 -31.5t33.5 -87.5q0 -53 -48.5 -92t-109.5 -39q-58 0 -92.5 30.5t-34.5 85.5zM317 608q0 101 80 183t207 133q40 17 101 40t105.5 40t97.5 39t89.5 43t68.5 46t48 53.5t16 59.5q0 56 -36 89.5t-107 33.5t-131 -28t-94 -68 q-76 -96 -123 -96q-30 0 -51 29t-21 67q0 100 97 169.5t276 69.5q169 0 264 -92q96 -93 96 -219q0 -107 -78.5 -192t-205.5 -138q-51 -22 -137.5 -53t-144.5 -53.5t-117.5 -51.5t-89.5 -61.5t-29 -68.5q0 -31 17.5 -50.5t47.5 -19.5q52 0 117 35q57 31 86 31q47 0 47 -54 q0 -55 -65 -98t-175 -43q-115 0 -186 68q-70 70 -70 157z" />
<glyph unicode="@" horiz-adv-x="1968" d="M248 231q0 187 83.5 363.5t231.5 308.5q150 133 356 211t429 78q275 0 446 -139q168 -137 168 -355q0 -107 -50 -212.5t-132 -186.5q-114 -111 -254.5 -181.5t-231.5 -70.5q-116 0 -116 127q0 68 49 150l-6 2l-78 -101q-36 -40 -80 -84q-100 -100 -227 -100 q-75 0 -120.5 52t-45.5 153q0 115 84 246q83 130 225 219q146 90 291 90q155 0 190 -121q29 16 70 16q55 0 73.5 -29.5t-6.5 -72.5q-7 -18 -131 -174q-123 -156 -123 -203q0 -33 31 -33q36 0 106 40.5t142 105.5q78 70 130 172.5t52 202.5q0 164 -98.5 255t-290.5 91 q-247 0 -473 -119q-228 -120 -371 -324q-141 -202 -141 -434q0 -219 133 -328q132 -108 338 -108q361 0 588 133q73 44 135.5 93t91.5 81q60 70 90 70q35 0 35 -27q0 -19 -42 -72t-118 -120q-84 -78 -184 -142q-108 -71 -258 -116.5t-299 -45.5q-306 0 -500 185 q-192 183 -192 454zM856 233q0 -36 35 -36q107 0 237.5 113.5t270.5 316.5l14 12q-15 47 -90 47q-89 0 -205 -84q-107 -77 -188 -192q-74 -109 -74 -177z" />
<glyph unicode="A" horiz-adv-x="1636" d="M-143 31q0 39 53 108q18 25 92 99l135 137l250 252q-98 21 -98 75q0 23 15 44.5t38 21.5q25 0 168 -20q400 394 631 542q236 154 485 154q105 0 162 -53t57 -150q0 -126 -190 -485q136 16 145 16q31 0 31 -31q0 -36 -52.5 -58.5t-174.5 -35.5q-1 0 -4.5 -1t-4.5 -1 q-76 -142 -149 -264q-179 -305 -193 -324q-41 -80 -123 -80q-33 0 -56 28t-23 77q0 138 188 403l92 136q-237 -19 -563 -19h-76q-405 -442 -524 -553q-118 -112 -215 -112q-96 0 -96 94zM807 727h61q288 0 543 12q268 416 268 516q0 78 -73 78q-226 0 -799 -606z" />
<glyph unicode="B" horiz-adv-x="1384" d="M-63 88q0 86 204 369l254 348q232 316 348 455q-181 -34 -383 -142q-50 -28 -88 -47q-28 -16 -51 -16q-31 0 -49 26.5t-18 65.5q0 107 225 192q232 88 520 97q98 98 141 98q22 0 30.5 -11.5t2.5 -29.5q-13 -31 -33 -57q260 -15 379 -113q121 -100 121 -223 q0 -148 -178 -262q-174 -113 -352 -125q146 -9 237 -103q88 -91 88 -204q0 -108 -59 -203t-152.5 -157.5t-207.5 -98t-226 -35.5q-191 0 -280 86q-88 82 -88 186q0 69 48.5 120.5t127.5 51.5q29 0 49 -13t20 -32q0 -25 -35 -69q-34 -43 -34 -78q0 -70 151 -70q190 0 334 111 q145 112 145 250q0 176 -264 176q-14 0 -81.5 -6.5t-102.5 -6.5q-131 0 -131 82q0 17 2 21q-134 -215 -170 -275l-129 -213q-48 -84 -84 -137q-41 -63 -70 -87.5t-57 -24.5q-52 0 -78 30.5t-26 73.5zM578 762q44 29 200 29h12q219 0 371 106q162 113 162 248q0 41 -17 69.5 t-51.5 43.5t-76.5 21.5t-101 6.5q-29 0 -147 -4q-189 -263 -324 -475z" />
<glyph unicode="C" horiz-adv-x="1269" d="M102 451q0 163 109 340q109 173 268 307q157 133 338 215q183 86 320 86q167 0 251.5 -67t84.5 -167q0 -99 -105 -194q-108 -97 -194 -97q-62 0 -62 50q0 31 84 141q84 113 84 174q0 41 -53 41q-159 0 -363 -139q-200 -138 -344 -350q-143 -207 -143 -392q0 -158 86 -223 q86 -63 207 -63q144 0 362 96q116 52 235.5 150t213.5 223q35 41 49 41q31 0 31 -33q0 -35 -97 -170q-89 -124 -235 -248q-268 -235 -623 -235q-72 0 -141.5 17.5t-135.5 57.5t-116 98t-80.5 146t-30.5 195z" />
<glyph unicode="D" horiz-adv-x="1521" d="M0 98q0 71 90 230q79 138 318 499q178 266 266 383q-200 -56 -385 -200q-51 -39 -88 -39q-60 0 -60 88q0 82 70.5 151.5t187.5 112.5q221 81 449 94q70 70 104 70q52 0 52 -37q0 -6 -11 -35q177 -17 318 -88q131 -66 209.5 -186t78.5 -301q0 -152 -74.5 -311.5 t-203.5 -288.5q-128 -128 -303 -209q-177 -80 -363 -80q-160 0 -264 53t-141 139q-86 -151 -141 -151q-53 0 -81 32t-28 74zM303 238q113 -93 279 -93q216 0 399 119q182 117 285.5 298.5t103.5 375.5q0 91 -34 157t-95 97q-111 57 -235 57q-23 0 -105 -4l-262 -422 q-95 -152 -336 -585z" />
<glyph unicode="E" horiz-adv-x="1280" d="M68 289q0 111 61.5 210.5t157.5 162.5q91 59 179.5 92.5t149.5 33.5v3q-69 3 -124 61q-56 62 -56 145q0 170 215 308q216 137 502 137q84 0 148.5 -16.5t102 -41.5t61.5 -59.5t32 -66t8 -64.5q0 -62 -45.5 -96.5t-99.5 -34.5q-31 0 -53.5 17t-22.5 42t43 68q43 46 43 67 q0 31 -151 31q-195 0 -394 -123q-198 -122 -198 -235q0 -38 42 -59t111 -21q62 0 164 6q91 8 164 8q104 0 104 -86q0 -61 -86 -61q-17 0 -73.5 1t-71.5 1q-163 0 -377 -96q-114 -49 -186 -146t-72 -217q0 -80 59.5 -126t172.5 -46q137 0 282 45q160 49 330 162 q179 117 305 287q35 41 51 41q31 0 31 -33q0 -19 -43 -86q-42 -67 -123 -164q-85 -102 -166 -168q-309 -260 -612 -260q-145 0 -266 39q-130 40 -214.5 130t-84.5 208z" />
<glyph unicode="F" horiz-adv-x="1310" d="M25 160q0 106 64 170.5t153 64.5q57 0 57 -51q0 -32 -59 -100q-58 -64 -58 -113t109 -49q158 0 317.5 127.5t343.5 390.5q-224 -16 -254 -16h-4q-72 3 -72 75q0 8 1 17q3 62 32 65q110 17 334 18q34 0 70 -1q157 248 321 528q-47 2 -235 2q-290 -5 -420.5 -35t-130.5 -96 q0 -35 72 -82q71 -47 71 -67q-3 -47 -65 -47q-11 -1 -21 -1q-94 0 -174 48q-88 55 -88 151q0 146 203 238t571 92q270 0 510 -47q245 -47 332 -86q49 -21 49 -58q2 -27 -17 -47t-48 -20q-16 0 -68 8q-159 28 -416 43l-14 -25l-250 -509q14 -1 28.5 -2t23 -2t12.5 -1 q186 -5 186 -77v-7q-3 -47 -76 -47q-50 0 -246 -4q-94 -172 -174.5 -289t-175.5 -217q-194 -206 -444 -206q-185 0 -269 84q-81 81 -81 180z" />
<glyph unicode="G" horiz-adv-x="1396" d="M100 451q0 129 73 271.5t196 262.5q176 181 408 302q226 118 398 118h9q159 0 237 -63t78 -162q0 -117 -104 -211q-106 -95 -215 -95q-47 0 -47 50q0 41 81 141q84 104 84 174q0 41 -51 41q-108 0 -262 -98q-161 -102 -295 -242q-135 -141 -235 -324q-99 -178 -99 -323 q0 -73 37 -124.5t92 -51.5q100 0 310 121q207 122 346 276q73 123 149 123q73 0 104 -15t31 -51q0 -21 -22 -63q-20 -38 -86 -146q-51 -80 -121 -210q-50 -92 -113 -234q-59 -138 -85.5 -184.5t-51.5 -46.5q-40 0 -73 36t-33 84q0 119 182 480q-276 -334 -467 -334 q-149 0 -293 108q-74 57 -118 160t-44 230z" />
<glyph unicode="H" horiz-adv-x="1517" d="M20 37q0 68 111 209l277 348q-11 -1 -48.5 -2t-80 -3t-86.5 -5q-32 -2 -54 11.5t-22 37.5q0 68 151 86q153 12 250 16q385 490 385 578q0 33 -31 33q-64 0 -138 -39t-130 -93q-139 -129 -172 -129q-78 0 -78 101q0 106 156 192q155 88 383 88q79 0 127.5 -51t48.5 -121 q0 -83 -70 -202q-78 -133 -233 -349q297 5 506 5q361 570 522 706q59 47 107 47q23 0 42 -10t19 -27q0 -24 -49 -94l-160 -225q-106 -153 -213 -338l-37 -62q58 -4 92.5 -27t34.5 -48q-6 -44 -26 -54q-17 -9 -61 -8h-17h-99q-45 -81 -141 -260l-96 -186q-52 -104 -82 -148 q-26 -37 -48 -38q-4 0 -7 1q-75 0 -121 46q-27 29 -27 60q0 19 10 38q101 210 273 489q-218 0 -522 -6l-246 -350q-130 -187 -182 -244q-53 -59 -103 -59q-51 0 -83 24t-32 62z" />
<glyph unicode="I" horiz-adv-x="557" d="M-49 29q0 58 33 102q706 1034 706 1149q0 35 -22 35q-74 0 -162 -58q-94 -62 -156 -124q-47 -47 -129 -125q-58 -58 -80 -58q-37 0 -64.5 26t-27.5 62q0 74 96 170q97 97 236 162q142 68 258 68q59 0 119 -11q56 -6 84.5 -38t34.5 -99q0 -84 -76 -246q-71 -152 -150 -284 q-76 -128 -196 -316l-131 -204q-124 -204 -160 -246q-33 -45 -78 -45q-135 0 -135 80z" />
<glyph unicode="J" horiz-adv-x="1079" d="M-106 20q0 151 114 277q115 125 295 198t393 85q82 132 205 344q217 381 217 397q0 8 -6 8q-14 0 -78 -37q-74 -43 -190 -137q-135 -110 -252 -229q-71 -74 -105 -74q-69 0 -69 78q0 98 180 235q187 142 381 234q206 96 281 96q116 0 116 -102q0 -61 -86 -213 q-30 -56 -88 -158q-34 -60 -129 -217q-67 -109 -141 -238q131 -34 131 -100q0 -20 -15.5 -34.5t-35.5 -14.5q-17 0 -158 16q-207 -352 -354 -508q-148 -157 -320 -157q-152 0 -219 79q-67 76 -67 172zM106 -8q0 -84 52 -84q113 0 454 541q-235 -3 -372 -146 q-134 -143 -134 -311z" />
<glyph unicode="K" horiz-adv-x="1282" d="M-74 41q0 71 92 207l256 370q-65 18 -65 60q0 35 19.5 52.5t70.5 31.5l98 26q221 315 273 455q13 38 13 63q0 44 -42 44q-80 0 -205 -90q-107 -79 -219 -179q-98 -88 -119 -88q-80 0 -80 113q0 82 117 168q116 85 266 139q151 53 252 53q57 0 98.5 -16.5t62 -44 t31.5 -59.5q10 -30 10 -63v-5q-1 -36 -6 -64t-13 -51q-51 -149 -156 -325q179 96 426 256q42 28 96.5 65t88.5 60t77 51.5t69.5 46t58 37.5t51.5 31t40 21.5t33 14.5t22 4q50 -5 65 -30q13 -22 13 -58v-10q0 -39 -26.5 -82.5t-71.5 -73.5q-155 -96 -430 -231 q-274 -134 -545 -240q98 -22 150 -116q53 -95 65 -199q10 -86 35 -184q24 -82 68 -82q73 0 190.5 87.5t239.5 235.5q39 45 59 45q24 0 31 -21t-6 -40q-143 -207 -312 -350q-165 -139 -286 -139q-84 0 -134.5 54t-64.5 146q-6 38 -16.5 132.5t-19.5 149.5t-33.5 118.5 t-61.5 93.5q-62 -104 -250 -379l-59 -90l-62 -90q-19 -28 -51 -66q-55 -69 -102 -69q-44 0 -72.5 30.5t-28.5 73.5z" />
<glyph unicode="L" horiz-adv-x="1421" d="M-16 63q0 102 96.5 164.5t292.5 69.5l96 182q76 148 100 197q40 76 105 190q67 112 117 185q144 200 264 286q158 113 327 113q258 0 258 -223q0 -87 -47.5 -188.5t-119.5 -184.5q-68 -78 -136 -129t-106 -51q-68 0 -68 51q0 23 64 111q55 76 127 206q63 114 63 207 q0 74 -47 74q-63 0 -156 -100q-107 -120 -190 -242q-115 -169 -193 -299l-83 -145l-78 -136q-46 -82 -62 -104q10 -2 47 -2q280 -15 467 -62q187 -46 187 -114q0 -66 -43 -100.5t-109 -34.5q-41 0 -256 57q-220 59 -366 74q-41 -69 -54 -88q-21 -30 -61 -76 q-82 -88 -201 -88q-91 0 -164 55q-71 53 -71 145zM104 45q0 -39 37 -39q87 0 158 139q-81 -3 -137 -32q-58 -27 -58 -68z" />
<glyph unicode="M" horiz-adv-x="1966" d="M-70 41q0 79 93 213q108 163 296 401q226 290 329.5 444t103.5 226q0 80 -72 80q-101 0 -225 -74q-121 -72 -217 -147q-97 -72 -125 -72q-82 0 -82 100q0 129 182 228q180 98 383 98q142 0 224.5 -60.5t82.5 -160.5q0 -87 -47 -187q265 271 483 271q179 0 179 -170 q0 -72 -64 -203q109 93 225.5 146t186.5 53q69 0 113 -50.5t44 -136.5q0 -60 -102 -241q-108 -193 -205 -379q-102 -196 -102 -291q0 -55 37 -55q127 0 428 368q42 45 59 45q24 0 31.5 -21t-6.5 -40q-173 -252 -299.5 -370.5t-247.5 -118.5q-87 0 -156 75q-71 77 -71 176 q0 98 69 236q66 132 154 260q81 114 155 227q70 107 70 144q0 43 -39 43q-82 0 -242 -109q-158 -107 -278 -289q-65 -92 -115 -174l-112 -182l-95 -158l-49 -84q-26 -47 -45 -62t-51 -15q-52 0 -86.5 29.5t-34.5 76.5q0 39 103 197q69 105 223 323q119 163 225 334 q102 163 102 219q0 76 -38 76q-154 0 -416 -274q-247 -261 -549 -740l-29 -45l-69 -108l-62 -84q-67 -90 -123 -90q-51 0 -89 30.5t-38 71.5z" />
<glyph unicode="N" horiz-adv-x="1335" d="M-59 41q0 71 86 207q79 125 270 395q201 282 294 433.5t93 209.5q0 74 -55 74q-74 0 -162 -55q-80 -49 -150 -119l-118 -119q-56 -53 -74 -53q-84 0 -84 88q0 133 162 258q165 127 377 127q134 0 194 -72q62 -71 62 -151q0 -135 -48 -211q358 385 555 385q93 0 141 -58 t48 -149q0 -84 -84 -250q-73 -145 -186 -311q-102 -147 -185 -301q-84 -156 -84 -226q0 -51 37 -51q133 0 418 350q42 45 59 45q25 0 32.5 -21t-7.5 -40q-161 -234 -290.5 -350.5t-246.5 -116.5q-76 0 -147 86q-70 88 -70 188q0 101 88 259q91 164 197 299q89 113 194 274 q91 139 91 190q0 23 -9 29.5t-41 5.5q-119 -3 -419 -309q-306 -312 -555 -721l-64 -104q-36 -58 -61 -95q-45 -59 -58 -71q-47 -47 -82 -47q-47 0 -82.5 30t-35.5 68z" />
<glyph unicode="O" horiz-adv-x="1536" d="M121 457q0 161 65 315q65 149 164 266q135 156 297 264q155 104 214 103h5q45 0 45 -42v-5t-12 -23q169 129 377 129q166 0 278 -118q115 -121 115 -342q0 -173 -80 -365q-80 -189 -213 -346q-132 -156 -323 -258q-189 -101 -391 -101q-126 0 -224 35t-156 88.5 t-96 125.5t-51.5 138.5t-13.5 135.5zM377 360q0 -149 72 -215.5t194 -66.5q150 0 299 104q148 104 254 258q107 155 172 334q68 180 68 324q0 121 -53.5 200.5t-129.5 79.5q-110 0 -211 -84q-97 -85 -163 -196q-27 -44 -45 -84q-26 -51 -40.5 -71.5t-27.5 -20.5 q-61 0 -61 77q0 117 81 226q-67 -64 -133 -144q-63 -75 -129 -180q-147 -235 -147 -541z" />
<glyph unicode="P" horiz-adv-x="1216" d="M-57 41q0 90 245 455q69 105 226 333l280 408q-189 -40 -358 -145q-94 -58 -129 -58q-29 0 -47.5 31t-18.5 72q0 110 211 192q213 83 484 92q70 82 110 82q51 0 51 -41q0 -16 -14 -41q144 -7 249.5 -46.5t160.5 -102.5q98 -112 98 -264q0 -207 -209 -363 q-206 -153 -537 -153q-83 0 -165 18q-84 21 -107 55l-102 -180q-75 -134 -150 -262q-66 -112 -96 -146q-33 -47 -72 -47q-56 0 -83 32.5t-27 78.5zM518 641q15 0 80 -10q55 -8 96 -8q254 0 434 151q181 150 181 305q0 77 -47 121q-44 41 -97.5 53.5t-148.5 12.5 q-23 0 -125 -4l-295 -488z" />
<glyph unicode="Q" horiz-adv-x="1558" d="M143 457q0 162 80 327q78 162 189 277q108 111 209 181.5t151 70.5q14 0 31 -10q202 161 440 161q208 0 328.5 -118.5t120.5 -341.5q0 -194 -95 -404q-97 -211 -266 -377q-167 -167 -377 -239q138 18 246 18q197 0 197 -127q0 -20 -13.5 -32.5t-33.5 -12.5 q-169 0 -351 -29q-168 -30 -262 -67q-46 -18 -111 -45t-96.5 -39t-37.5 -12q-91 0 -91 108q0 59 31 78q123 66 289 113q-12 -3 -37 -3q-126 0 -224 35t-156 88.5t-96 125.5t-51.5 138.5t-13.5 135.5zM367 391q0 -158 88 -237q90 -78 202 -78q164 0 320 100q157 101 272 252 q116 152 185 322q71 177 71 315q0 117 -57.5 191.5t-144.5 74.5q-82 0 -163.5 -28t-150 -75t-132 -109.5t-113.5 -131.5t-90.5 -140t-67 -136t-39.5 -119q-13 -58 -24.5 -79t-33.5 -21q-59 0 -59 108q0 158 96 361q-159 -249 -159 -570z" />
<glyph unicode="R" horiz-adv-x="1284" d="M-37 45q0 121 322 606q-54 22 -54 51q0 32 26.5 59t55.5 25q40 -6 58 -10l69 101l265 370q-98 -22 -189 -60t-143 -73q-123 -84 -162 -84q-70 0 -70 107q0 95 195 178t498 98q109 133 147 133q63 0 63 -59q0 -21 -36 -74q225 -12 368 -94q146 -84 146 -238 q0 -141 -146 -260q-144 -114 -342 -172q-195 -55 -391 -55q46 -60 107 -188q62 -132 110.5 -190t112.5 -58q194 0 424 284q39 45 59 45q24 0 31 -21t-6 -40q-163 -232 -291 -348q-125 -113 -281 -113q-77 0 -138 44t-101 122q-39 73 -68 156l-59 170q-24 73 -60 143 q-70 -118 -137 -238q-78 -140 -104 -188q-39 -70 -72 -121q-34 -55 -58.5 -76.5t-50.5 -21.5q-98 0 -98 90zM561 729q19 -1 39 -1q158 0 314 51q176 57 286 153q105 91 105 184v10q0 85 -68.5 117.5t-228.5 32.5q-15 0 -97 -4q-107 -155 -278 -426z" />
<glyph unicode="S" horiz-adv-x="1423" d="M-6 238q0 110 76 180q77 71 149 71q47 0 47 -38q0 -25 -53 -105t-53 -121q0 -59 51 -87.5t176 -28.5q161 0 344 53q177 54 309 151q131 94 131 203q0 156 -267 156h-13q-8 0 -26 -1q-52 -1 -96 -1q-134 0 -202 13q-188 38 -188 193q0 141 129 273q134 134 323 209 q195 80 377 80q153 0 253 -61t100 -154q0 -94 -72 -160q-70 -64 -137 -64q-49 0 -49 39q0 24 55 88q57 63 57 99q0 61 -86 61h-15q-134 0 -284 -50q-158 -52 -264 -140q-102 -84 -102 -168v-8q0 -26 10.5 -44.5t32.5 -29.5t46 -18t62.5 -10.5t69.5 -4.5t79 -2.5t80 -3.5 q102 -9 183 -27q90 -20 144 -86.5t54 -173.5q0 -133 -89.5 -252.5t-235.5 -197.5q-143 -74 -305 -117t-308 -43q-119 0 -215.5 25.5t-150.5 64.5q-70 53 -98.5 118.5t-28.5 119.5z" />
<glyph unicode="T" horiz-adv-x="862" d="M90 1249q0 43 34.5 67.5t119.5 37.5q128 22 788 86q91 110 144 110q61 0 61 -49q0 -14 -16 -43q442 41 454 41q82 0 124 -41t42 -102q0 -47 -80 -56l-700 -90q-116 -182 -258 -436q-76 -132 -260 -471q-133 -244 -172 -301q-40 -55 -95 -55q-112 0 -112 102q0 76 164 340 q48 80 149 240q61 97 182 278l185 277q-448 -58 -527 -58q-227 0 -227 123z" />
<glyph unicode="U" horiz-adv-x="1435" d="M102 217q0 119 86 283q90 170 193 299q99 121 192 258q89 127 89 176q0 27 -15 27q-81 0 -188 -66q-117 -74 -180 -127q-75 -63 -103 -63q-25 0 -47.5 24t-22.5 57q0 86 103 160q102 73 225 111q124 37 215 37q89 0 150 -50.5t61 -128.5q0 -70 -82 -213 q-92 -158 -180 -280q-102 -149 -178 -287q-82 -149 -82 -227q0 -76 51 -76q147 0 371 217q215 205 454 537q75 135 201 336q49 79 58 92q54 78 106 78q130 0 133 -64q0 -30 -96 -199q-67 -118 -213 -352q-108 -170 -215 -373q-96 -190 -96 -260q0 -51 36 -51q127 0 420 350 q39 45 58 45q25 0 32 -21t-8 -40q-163 -235 -290.5 -351t-243.5 -116q-80 0 -150 64q-67 64 -67 159q0 112 88 275q-385 -502 -594 -502q-127 0 -199 78q-72 81 -72 184z" />
<glyph unicode="V" horiz-adv-x="1214" d="M-8 1030q0 87 96 168q96 78 232.5 123t263.5 45q71 0 117.5 -44.5t46.5 -133.5q0 -86 -89 -256l-174 -344q-86 -177 -86 -271q0 -51 9 -89t23 -57t27.5 -27.5t26.5 -8.5q204 0 605 647q238 379 337 496q101 119 218 119q31 0 52 -16.5t21 -37.5q0 -18 -55 -88l-162 -208 q-104 -137 -188 -265q-300 -455 -500 -643q-199 -184 -367 -184q-128 0 -212 94.5t-84 257.5q0 117 63 264q71 165 139 269q89 140 140 225q63 105 63 139q0 29 -16 29q-62 0 -141.5 -40t-147.5 -97q-164 -135 -193 -135q-25 0 -45 20t-20 49z" />
<glyph unicode="W" horiz-adv-x="1734" d="M-12 1030q0 86 108 172t244 137q136 50 225 50q114 0 160.5 -40t46.5 -130q0 -120 -229 -480q-203 -326 -203 -458q0 -54 20.5 -90.5t47.5 -36.5q71 0 253.5 217t458.5 643q43 67 117 67q84 0 84 -61q0 -9 -80 -166q-56 -108 -88 -178q-38 -90 -66 -176 q-36 -107 -36 -185q0 -176 75 -176q72 0 187 142q121 152 329 505q214 358 326 488q109 127 227 127q32 0 54 -16t22 -37q0 -16 -59 -93q-31 -39 -189 -249q-132 -176 -258 -369q-244 -375 -385 -522q-140 -146 -295 -146q-131 0 -202.5 85t-71.5 220q0 1 2.5 14.5t8.5 45.5 t12 69q-236 -426 -482 -426q-85 0 -151 54q-109 96 -109 243q0 207 303 644q187 284 187 319q0 27 -21 27q-41 0 -100 -35q-66 -39 -109 -74l-137 -117q-115 -100 -154 -100q-27 0 -50 26t-23 66z" />
<glyph unicode="X" horiz-adv-x="1310" d="M-94 74q0 44 79 98.5t220 122.5q129 60 315 176q189 118 344 252q-35 448 -57 510q-12 35 -27 35q-48 0 -178 -127q-127 -127 -147 -127q-26 0 -53 29t-27 69q0 70 141 172q141 105 285 105q131 0 178 -103q50 -109 76 -387q89 85 213 199q98 87 182 153q204 162 334 162 q59 0 91 -27t32 -65q0 -24 -39 -46q-16 -10 -84 -42q-73 -32 -158 -80q-94 -49 -242 -156q-143 -103 -315 -258q17 -180 43 -354q11 -65 23.5 -135t18.5 -104t10.5 -65.5t4.5 -49.5q0 -38 -18 -54t-70 -16q-95 0 -135 123q-39 117 -69 479q-382 -347 -553 -471 q-180 -133 -275 -133q-67 0 -105 30t-38 85z" />
<glyph unicode="Y" horiz-adv-x="1298" d="M106 217q0 92 58.5 214.5t152.5 246.5q54 70 168 208t167 211t53 101q0 27 -15 27q-64 0 -151 -41q-50 -24 -98 -56t-99.5 -71t-77.5 -56q-58 -40 -80 -40t-43.5 20t-21.5 49q0 127 190 232q189 104 346 104q99 0 153 -54.5t54 -156.5q0 -55 -82 -186q-87 -138 -182 -262 q-90 -120 -180 -277q-82 -143 -82 -223q0 -43 11 -59.5t42 -16.5q106 0 416 289q312 288 567 645q69 124 90 156l56 92q56 78 106 78q25 0 40.5 -2t31 -8t23 -19.5t7.5 -34.5q0 -24 -47 -98q-21 -34 -186 -314q-144 -242 -307 -546l-379 -725l-31 -54q-12 -20 -49.5 -40.5 t-77.5 -20.5q-80 0 -80 80q0 68 84 227q94 168 248 414q172 275 254 426q-215 -295 -436 -510q-217 -211 -346 -211q-126 0 -196.5 74t-70.5 188z" />
<glyph unicode="Z" horiz-adv-x="1339" d="M74 231q0 113 131 211q125 94 491 260q177 81 570 279l432 217q-609 -74 -914 -74q-89 0 -144.5 42t-55.5 118q0 92 59 92h4q259 -16 557 -16q92 2 250 2q66 1 136 2.5t109.5 2.5t41.5 1q65 0 86.5 -11.5t21.5 -51.5q0 -30 -47 -74q23 -13 23 -49q0 -32 -183 -144 q-194 -119 -620 -360q-271 -153 -307 -174q-307 -176 -402 -240q-94 -64 -94 -104q0 -31 27 -31q23 0 319 55q296 58 504 58q238 0 238 -144q0 -36 -12.5 -59t-30.5 -25q-83 -6 -242 -15.5t-211 -12.5q-419 -31 -473 -31q-124 0 -195 86q-69 84 -69 190z" />
<glyph unicode="[" horiz-adv-x="704" d="M39 -324q0 121 315 861q325 764 441 1007q38 77 82 80q54 4 206 4q111 0 228 -8q44 -5 62 -17t18 -40q0 -45 -56 -54q-51 -13 -180 -26q-133 -10 -170 -10q-35 0 -57 -19.5t-45 -73.5q-117 -281 -398 -989q-252 -642 -252 -684q0 -38 125 -35q10 1 28 1.5t49.5 1 t56.5 1.5q66 2 112 2q101 3 101 -61q0 -25 -25 -44.5t-66 -23.5q-2 0 -10.5 -1t-28.5 -4t-40 -5q-168 -28 -295 -28q-114 0 -157.5 36.5t-43.5 128.5z" />
<glyph unicode="\" horiz-adv-x="778" d="M307 1311q-15 177 19 211q66 43 96 -4q13 -17 22 -82l41 -289q29 -213 80 -483q61 -320 125 -625q53 -262 47 -291q-2 -12 -14 -20q-20 -19 -44 -19t-52 23q-38 47 -78 227q-43 193 -143 725q-83 472 -99 627z" />
<glyph unicode="]" horiz-adv-x="704" d="M-334 -406q0 49 58 64q50 14 323 35q37 5 57.5 23t45.5 69q700 1623 700 1675q0 36 -125 33l-272 -12q-101 -3 -101 59q0 25 24.5 44.5t65.5 23.5q237 39 375 39q113 0 157 -37t44 -127q0 -96 -322 -860q-315 -755 -434 -1008q-40 -79 -82 -82q-54 -4 -207 -4 q-110 0 -227 8q-45 5 -62.5 16.5t-17.5 40.5z" />
<glyph unicode="^" horiz-adv-x="1421" d="M563 756q0 52 170 231q378 402 469 402q82 0 88 -91q7 -105 35 -256q15 -73 32.5 -146t26.5 -109t9 -42q0 -22 -19.5 -38.5t-40.5 -16.5q-125 0 -198 449q-3 23 -5 28q-172 -149 -305 -284q-128 -128 -153 -148q-38 -30 -66 -30q-19 0 -31 13.5t-12 37.5z" />
<glyph unicode="_" horiz-adv-x="1021" d="M-88 -92h1024v-139h-1024v139z" />
<glyph unicode="`" horiz-adv-x="700" d="M244 1407q0 31 24 53.5t56 22.5q24 0 37 -9.5t30 -39.5q20 -40 29 -66q84 -200 106 -250q52 -113 52 -123q0 -9 -9.5 -17.5t-25.5 -8.5q-10 0 -18 4t-17.5 14.5t-17 20.5t-23 30.5t-27.5 36.5q-196 266 -196 332z" />
<glyph unicode="a" horiz-adv-x="995" d="M45 223q0 206 211 414q211 211 438 211q161 0 176 -127q25 14 74 14q55 -1 75 -33q9 -14 9 -31q0 -22 -14 -48q-9 -24 -137 -199q-129 -182 -129 -236q0 -36 34 -36q91 0 326 290q39 45 59 45q24 0 31.5 -21t-6.5 -40q-305 -434 -479 -434q-63 0 -101 37q-37 36 -36 108 q0 76 51 174l-4 2l-66 -90q-9 -14 -65 -84q-43 -52 -82 -82q-98 -69 -191 -69q-78 0 -126 59.5t-48 175.5zM240 209q0 -45 36 -45q215 0 531 491l10 17q-9 55 -82 55q-120 0 -309 -201q-186 -198 -186 -317z" />
<glyph unicode="b" horiz-adv-x="817" d="M74 201q0 197 159 508q155 302 367 544q208 234 338 234q94 0 94 -117q0 -139 -186 -383t-510 -553q-47 -100 -47 -180q0 -94 67 -94q73 0 199 123q126 120 186 237q-92 53 -92 121q0 48 47 98q49 49 113 49q92 0 92 -86q0 -55 -33 -131q35 -23 76 -35t68 -12 q53 0 53 -32q0 -48 -59 -48q-86 0 -179 43q-106 -207 -264 -352q-165 -151 -289 -151q-93 0 -146.5 58.5t-53.5 158.5zM369 563q255 264 409 475q152 208 152 283q0 12 -15 12q-59 0 -227 -241q-169 -239 -319 -529z" />
<glyph unicode="c" horiz-adv-x="727" d="M68 262q0 125 94 262q100 146 237 230q145 92 273 92q79 0 124.5 -38.5t45.5 -94.5q0 -65 -56 -133q-57 -66 -106 -66q-45 0 -45 35q0 29 41 88q40 58 40 84q0 11 -7 15q-8 5 -27 5q-59 0 -154 -86q-97 -87 -168 -204q-71 -118 -71 -195q0 -64 27 -90.5t83 -26.5 q92 0 213 86q121 89 228 217q42 45 59 45q25 0 32.5 -21t-7.5 -40q-145 -208 -305 -325t-310 -117q-108 0 -174.5 71.5t-66.5 206.5z" />
<glyph unicode="d" horiz-adv-x="995" d="M45 223q0 206 211 414q211 211 438 211q72 0 113 -23t67 -77l283 489q89 155 135 207q39 45 99 45q55 0 77.5 -15.5t22.5 -52.5t-64 -135l-198 -297q-150 -218 -238 -362q-10 -18 -78 -125q-58 -91 -69 -113q-97 -153 -97 -194q0 -4 1 -7q0 -36 34 -36q91 0 326 290 q39 45 59 45q24 0 31.5 -21t-6.5 -40q-305 -434 -479 -434q-63 0 -101 37q-37 36 -36 108q0 76 51 174l-4 2l-66 -90q-9 -14 -65 -84q-43 -52 -82 -82q-98 -69 -191 -69q-78 0 -126 59.5t-48 175.5zM240 209q0 -45 36 -45q221 0 531 491l22 37q-24 35 -88 35 q-134 0 -319 -197q-182 -194 -182 -321z" />
<glyph unicode="e" horiz-adv-x="749" d="M68 248q0 155 96 301q95 140 224 220.5t247 80.5q93 0 147 -47t54 -133q0 -119 -140 -209q-98 -63 -254 -63q-61 0 -131 10q-30 -76 -30 -146q0 -58 33 -90.5t94 -32.5q209 0 454 303q42 45 60 45q25 0 32 -21t-8 -40q-111 -180 -282 -309q-177 -133 -334 -133 q-121 0 -191.5 72.5t-70.5 191.5zM348 481q33 -3 63 -3q130 0 212 52q102 64 102 148q0 59 -49 59q-62 0 -162 -75q-102 -73 -166 -181z" />
<glyph unicode="f" horiz-adv-x="522" d="M-289 -391q0 25 23 78q5 12 27 52t30 56l322 647q112 226 172 338q74 143 159 283q85 141 160 229q72 88 152 141.5t151 53.5q97 0 97 -117q0 -137 -185 -387q-181 -241 -504 -549l-122 -227q18 -43 61 -43q167 0 381 278q28 36 49 36q12 0 21 -11q11 -7 11 -21 q0 -18 -20 -47q-274 -379 -473 -379q-73 0 -106 39l-215 -424q-47 -84 -111 -84q-80 0 -80 58zM348 563q249 261 404 473q149 204 149 285q0 12 -16 12q-55 0 -219 -231q-175 -254 -318 -539z" />
<glyph unicode="g" horiz-adv-x="980" d="M-72 -322q0 65 45.5 109.5t151.5 75.5q239 78 321 110l181 338l-4 2l-66 -90q-9 -14 -65 -84q-43 -52 -82 -82q-98 -69 -191 -69q-78 0 -126 59.5t-48 175.5q0 206 211 414q211 211 438 211q161 0 176 -127q25 14 74 14q57 0 76 -34q8 -13 8 -29q0 -25 -18 -56l-283 -477 q-11 -13 -29 -49q225 129 394 352q27 37 51 37t31 -20t-9 -49q-189 -281 -538 -447q-103 -190 -127 -242q-46 -104 -128.5 -171.5t-178.5 -67.5q-126 0 -195.5 58t-69.5 138zM90 -279q0 -51 94 -51q48 0 82 21q8 5 14 8.5t12 9t10 8.5t9 10t7.5 9.5t8 12t7.5 12.5t9 15.5 t9 16.5l35 70q-167 -65 -221 -82q-76 -27 -76 -60zM240 209q0 -45 36 -45q215 0 531 491l10 17q-9 55 -82 55q-120 0 -309 -201q-186 -198 -186 -317z" />
<glyph unicode="h" horiz-adv-x="929" d="M-66 63q0 59 105 240l532 957q75 135 127 184q48 45 107 45q90 0 90 -68q0 -47 -84 -174q-69 -109 -98 -151l-62 -90l-71 -105l-78 -115l-66 -116l-55 -99l4 -4q257 275 420 275q69 0 112.5 -41t43.5 -107q0 -69 -76 -182q-60 -93 -150 -213q-76 -98 -76 -131 q0 -31 33 -31q101 0 350 305q42 45 60 45q24 0 31 -21t-7 -40q-158 -226 -276 -332t-225 -106q-71 0 -115.5 35.5t-44.5 101.5q0 71 74 186q86 128 149 213q76 101 76 135q0 37 -39 37q-117 0 -297 -180q-176 -176 -313 -453q-34 -63 -101 -63q-80 0 -80 63z" />
<glyph unicode="i" horiz-adv-x="436" d="M-23 141q0 88 136 301l180 275q59 86 135 86q44 0 63 -15.5t19 -50.5q0 -31 -35 -80q-9 -17 -35 -51l-98 -135q-64 -90 -74 -106l-51 -78q-49 -74 -49 -119q0 -31 33 -31q105 0 348 305q42 45 59 45q25 0 32.5 -21t-7.5 -40q-159 -226 -276 -332t-224 -106 q-69 0 -112.5 42t-43.5 111zM446 1053q0 44 45 80t99 36t84.5 -27.5t30.5 -76.5q0 -44 -45 -79.5t-99 -35.5t-84.5 27t-30.5 76z" />
<glyph unicode="j" horiz-adv-x="399" d="M-571 -377q0 190 407 340q52 85 115 199q182 325 336 557q53 84 131 84q82 0 82 -64q0 -27 -23 -71q-20 -38 -74 -111q-53 -68 -73 -104l-219 -342l-33 -52q230 128 434 383q33 45 57 45q25 0 32.5 -21t-7.5 -40q-226 -326 -600 -502q-181 -288 -232 -344 q-87 -100 -192 -100q-69 0 -105 39.5t-36 103.5zM-440 -319q3 -24 13 -34.5t23 -7.5t25.5 11t22.5 20q33 38 63 80q13 23 21 31l43 69q-211 -91 -211 -169zM434 1053q0 44 45 80t99 36t84 -27.5t30 -76.5q0 -44 -44.5 -79.5t-98.5 -35.5t-84.5 27t-30.5 76z" />
<glyph unicode="k" horiz-adv-x="929" d="M-66 63q0 59 105 240l532 957q75 135 127 184q48 45 107 45q90 0 90 -68q0 -47 -84 -174q-69 -109 -98 -151l-62 -90l-71 -105l-78 -115l-66 -116l-55 -99l4 -4q106 115 242 203q136 86 243 86q69 0 112.5 -41.5t43.5 -107.5q0 -124 -137 -209q-142 -85 -330 -133 q47 -228 133 -228q62 0 139.5 70.5t210.5 234.5q42 45 60 45q24 0 31 -21t-7 -40q-157 -228 -272 -334q-113 -104 -246 -104q-65 0 -115.5 39t-76.5 102q-43 111 -43 195q0 60 51 75q162 40 278 119q117 82 117 137q0 22 -16 40t-43 18q-86 0 -268 -144q-91 -72 -193 -206.5 t-184 -299.5q-29 -63 -101 -63q-80 0 -80 63z" />
<glyph unicode="l" horiz-adv-x="542" d="M57 209q0 147 148 457q153 313 354 563q205 258 338 258q94 0 94 -117q0 -145 -176 -401q-172 -251 -485 -545q-60 -123 -60 -203q0 -78 45 -78q97 0 340 299q39 45 60 45q24 0 31 -21t-7 -40q-109 -158 -188 -250.5t-156 -142t-153 -49.5q-185 0 -185 225zM375 563 q243 255 379 465q137 207 137 293q0 12 -17 12q-101 0 -499 -770z" />
<glyph unicode="m" horiz-adv-x="1347" d="M-80 59q0 48 25 80q6 13 31.5 58t31.5 57l287 510q35 59 106 59q86 0 86 -61q0 -20 -16 -49q-7 -14 -49 -75.5t-60 -96.5l7 -2q125 151 214.5 220.5t180.5 69.5q86 0 113 -77q9 -24 9 -51q0 -58 -40 -128l4 -2q200 258 364 258q66 0 103 -40t37 -107q0 -63 -43 -145 t-97 -148q-137 -177 -137 -221q0 -31 31 -31q103 0 352 305q39 45 58 45q25 0 32 -21t-6 -40q-159 -228 -279 -333t-235 -105q-70 0 -113 36.5t-43 106.5q0 67 70 168q87 129 139 197q70 94 70 135q0 37 -39 37q-184 0 -524 -586q-28 -48 -53 -65t-62 -17q-84 0 -84 63 q0 23 12 50q8 19 48 86l49 86q25 47 86 137q62 92 88 140.5t26 78.5q0 45 -41 45q-161 0 -550 -616q-46 -70 -105 -70q-84 0 -84 59z" />
<glyph unicode="n" horiz-adv-x="929" d="M-66 70q0 43 68 170l283 503q35 60 104 60q86 0 86 -62q0 -20 -16 -49q-7 -15 -48 -76t-59 -96l4 -4q85 128 217 227t232 99q69 0 112.5 -41t43.5 -107q0 -69 -76 -182q-60 -93 -150 -213q-76 -98 -76 -131q0 -31 33 -31q101 0 350 305q42 45 60 45q24 0 31 -21t-7 -40 q-158 -226 -276 -332t-225 -106q-71 0 -115.5 35.5t-44.5 101.5q0 71 74 186q86 128 149 213q76 101 76 135q0 37 -39 37q-117 0 -297 -180q-176 -176 -313 -453q-34 -63 -101 -63q-80 0 -80 70z" />
<glyph unicode="o" horiz-adv-x="851" d="M45 250q0 206 207 401q206 197 432 197q108 0 154 -62q26 -35 26 -77q0 -33 -16 -70q22 -22 22 -68q0 -21 -12 -73q48 0 97.5 16t81.5 36t58 36t33 16q25 0 25 -26q0 -32 -41 -64q-114 -102 -293 -111q-75 -155 -223 -288q-144 -129 -287 -129q-112 0 -188 76.5 t-76 189.5zM252 244q0 -105 84 -105q95 0 217 101q121 98 164 170q-29 11 -42.5 17.5t-30 18t-24 28t-10.5 40.5q0 48 49 100q51 54 121 54h4q5 27 -13.5 46t-55.5 19q-127 0 -297 -170q-166 -169 -166 -319z" />
<glyph unicode="p" horiz-adv-x="886" d="M-313 -391q0 27 16 67q5 24 27 52l37 67q466 872 509 948q35 60 107 60q86 0 86 -62q0 -20 -16 -49q-7 -14 -49 -75.5t-60 -96.5l8 -2q123 156 217 231.5t191 75.5q168 0 168 -217q0 -80 -61.5 -182.5t-164.5 -202.5q182 74 297 219q39 45 60 45q25 0 32 -21t-8 -40 q-171 -278 -587 -363q-137 -79 -228 -79q-94 0 -94 82q0 90 119 90q58 0 76 2q141 77 254 231q112 153 112 238q0 65 -51 65q-75 0 -219 -135q-143 -131 -223 -264l-99 -154q-22 -34 -94 -162l-98 -192l-76 -150q-44 -84 -108 -84q-80 0 -80 58z" />
<glyph unicode="q" horiz-adv-x="995" d="M45 223q0 206 211 414q211 211 438 211q161 0 176 -127q25 14 74 14q57 0 76 -34q8 -13 8 -29q0 -25 -18 -56l-283 -477q-36 -56 -111 -194q331 285 496 504q40 49 66 49q25 0 29.5 -20t-15.5 -52q-122 -176 -283 -332q-170 -166 -401 -354l-31 -68q-31 -67 -61.5 -94 t-83.5 -27q-72 0 -72 62t100 203l267 495l-4 2l-66 -90q-9 -14 -65 -84q-43 -52 -82 -82q-98 -69 -191 -69q-78 0 -126 59.5t-48 175.5zM240 209q0 -45 36 -45q215 0 531 491l10 17q-9 55 -82 55q-120 0 -309 -201q-186 -198 -186 -317z" />
<glyph unicode="r" horiz-adv-x="692" d="M82 385q0 3 31 57q110 143 168 234q-21 0 -41.5 19.5t-20.5 49.5q0 57 47 103.5t107 46.5q80 0 80 -76q0 -11 -4.5 -28t-4.5 -19q190 41 261 41q67 0 67 -70q0 -38 -37 -90q-315 -417 -315 -485q0 -31 33 -31q103 0 352 305q39 45 57 45q25 0 32.5 -21t-7.5 -40 q-158 -225 -285 -333.5t-248 -108.5q-65 0 -104 35.5t-39 101.5q0 65 63 170q56 94 160 239q79 105 131 189q-46 -5 -188 -33q-54 -83 -193 -276q-40 -64 -69 -64q-33 0 -33 39z" />
<glyph unicode="s" horiz-adv-x="737" d="M-4 242q0 112 72 196q54 61 103 61q20 0 38 -10q23 18 180 175q151 151 193 178q46 37 86 37q24 0 38 -15t13 -45q-3 -27 -82 -106q-19 -40 -19 -87q0 -28 7 -59q24 -98 24 -198q0 -103 -53 -189q115 77 254 262q33 45 57 45q25 0 32.5 -21t-7.5 -40q-148 -216 -301 -330 t-371 -114q-138 0 -201 81t-63 179zM141 217q0 -90 86 -90q79 0 168 80q90 84 90 194q0 1 -0.5 10t-1.5 26t-2 36q-2 33 -1.5 60t1.5 47q-11 -11 -96 -80q-110 -93 -121 -103q-10 -17 -43 -48.5t-56.5 -64.5t-23.5 -67z" />
<glyph unicode="t" horiz-adv-x="534" d="M31 164q0 90 49 194q51 108 182 318q-102 9 -102 65q0 34 22 56t66 22h104l78 121q141 228 199 305q50 62 98 62q44 0 63 -14t19 -46q0 -39 -41 -100l-49 -74l-172 -256q37 -1 69.5 -2t47.5 -1l14 -1q16 -2 22 -3.5t16.5 -5.5t14.5 -12.5t4 -21.5q-9 -57 -71 -72 q-37 -14 -205 -20l-107 -180q-119 -198 -119 -283q0 -72 62 -72q60 0 137 67t215 232q39 45 58 45q25 0 32 -21t-8 -40q-159 -231 -280.5 -336.5t-247.5 -105.5q-170 0 -170 180z" />
<glyph unicode="u" horiz-adv-x="950" d="M18 184q0 121 119 301l70 99q97 134 108 153q34 49 52 62.5t69 17.5q70 -1 94 -31q11 -14 11 -31q0 -21 -15 -48q-2 -3 -90 -119q-79 -100 -151 -217q-70 -110 -70 -174q0 -56 57 -56q84 0 195 129q109 130 342 467q4 5 9 12.5l7 10.5l5 7.5t5 6.5t4.5 5t5 5t5.5 4.5 t8 6.5q16 16 31.5 19t50.5 3q62 0 85 -30q11 -14 11 -30q0 -18 -14 -38q-8 -16 -166 -250t-158 -281q0 -36 39 -36q88 0 326 290q36 45 59 45q24 0 31.5 -21t-6.5 -40q-156 -220 -271.5 -327t-211.5 -107q-61 0 -96.5 38t-35.5 109q0 46 56 170l-4 4q-85 -133 -164 -221 q-103 -112 -221 -112q-83 0 -132 50t-49 154z" />
<glyph unicode="v" horiz-adv-x="952" d="M91 402q3 10 9 18q62 78 95 123q32 44 90 116q22 27 73 82q76 84 152 84q125 0 125 -120q0 -79 -123 -267q-123 -187 -123 -243t49 -56q94 0 226 135q135 138 215 297q-53 20 -78 45t-25 66q0 48 51 96q52 49 121 49q84 0 84 -92q0 -37 -18 -90q64 -13 106 -13q20 0 35 3 q39 6 102.5 27.5t69.5 21.5q25 0 25 -29q0 -25 -56 -55q-92 -54 -221 -54q-47 0 -98 7q-104 -210 -281 -387q-182 -182 -334 -182q-172 0 -172 196q0 58 36.5 139t86.5 150q125 163 125 184t-14 21q-21 0 -86 -72q-20 -21 -78 -100q-30 -36 -80 -107q-33 -40 -58 -40 q-9 0 -17 5q-20 13 -14 42z" />
<glyph unicode="w" horiz-adv-x="1366" d="M91 402q3 10 9 18q62 78 95 123q32 44 90 116q22 27 73 82q76 84 152 84q125 0 125 -120q0 -79 -123 -267q-123 -187 -123 -243t49 -56q54 0 144 94t172 252q81 155 116 213q29 44 56.5 60t74.5 16q39 0 52.5 -10t13.5 -39q0 -19 -117 -233q-116 -210 -116 -283 q0 -59 55 -59q89 0 201 124q109 120 198 297q-52 20 -77 45t-25 66q0 48 51 96q52 49 121 49q84 0 84 -92q0 -27 -17 -90q60 -13 106 -13q23 0 42 3q31 7 71 20t66 21.5t33 7.5q21 -6 18 -33q-7 -30 -53 -51q-99 -55 -220 -55q-47 0 -97 8q-87 -198 -254 -387 q-164 -182 -299 -182q-97 0 -147 62q-40 50 -40 121q0 17 2 36q-142 -219 -291 -219q-172 0 -172 196q0 58 36.5 139t86.5 150q125 163 125 184t-14 21q-21 0 -86 -72q-20 -21 -78 -100q-30 -36 -80 -107q-33 -40 -58 -40q-9 0 -17 5q-20 13 -14 42z" />
<glyph unicode="x" horiz-adv-x="952" d="M88 39q0 36 62 90q53 45 75 61q27 18 123 93l154 120q4 56 4 101q0 178 -66 178q-40 0 -84.5 -48t-140.5 -185q-4 -5 -16 -23.5t-21 -30.5q-27 -41 -57 -41q-24 0 -30.5 23.5t7.5 42.5l95 127q58 81 88 119q29 37 71 79q42 45 83 62.5t91 17.5q154 0 154 -278l274 233 q45 39 72 39q43 0 43 -39q0 -38 -82 -114q-112 -104 -313 -267q-2 -40 -2 -74q0 -188 57 -188q91 0 340 305q42 45 59 45q24 0 31.5 -21t-6.5 -40q-162 -233 -275.5 -335.5t-224.5 -102.5q-159 0 -159 258v10l-261 -209q-70 -55 -104 -55q-41 0 -41 47z" />
<glyph unicode="y" horiz-adv-x="942" d="M-111 -322q0 65 45.5 109.5t151.5 75.5q245 79 322 110l180 338l-4 2q-85 -133 -164 -221q-103 -112 -221 -112q-83 0 -132 50t-49 154q0 121 119 301l70 99q97 134 108 153q34 49 52 62.5t69 17.5q71 0 94 -31q11 -13 11 -31q0 -21 -15 -48q-2 -3 -90 -119 q-79 -100 -151 -217q-70 -110 -70 -174q0 -56 57 -56q84 0 195 129q109 130 342 467q4 5 9 12.5l7 10.5l5 7.5t5 6.5t4.5 5t5 5t5.5 4.5t8 6.5q16 16 31.5 19t50.5 3q63 0 84 -31q8 -13 8 -29q0 -22 -18 -50l-324 -568q-17 -24 -31 -49q230 132 396 352q27 37 50 37 q6 0 12 -2q23 -9 18 -42q-2 -13 -9 -25q-186 -277 -536 -447q-112 -201 -127 -242q-50 -105 -131.5 -172t-177.5 -67q-126 0 -195.5 58t-69.5 138zM51 -279q0 -51 94 -51q48 0 82 21q8 5 14 8.5t12 9t10 8.5t9 10t7.5 9.5t8 12t7.5 12.5t9 15.5t9 16.5l35 70 q-157 -62 -219 -82q-78 -28 -78 -60z" />
<glyph unicode="z" horiz-adv-x="786" d="M-287 -332q0 43 30.5 76.5t88.5 67.5q57 32 182 73l113 39q27 8 68.5 22.5t48.5 16.5q48 79 57 103q21 47 -4 47q-13 0 -84 -27q-70 -27 -98 -27q-20 0 -33.5 15.5t-13.5 40.5q0 102 127 102q5 3 38 27t58 41l94 65l78 58q67 50 123 112q47 55 47 111q0 32 -23 51.5 t-69 19.5q-89 0 -166 -71q-80 -74 -203 -242q-30 -35 -55 -35q-26 0 -32 24.5t13 47.5q93 120 170 211q179 209 383 209q98 0 153.5 -52t55.5 -124q0 -128 -188 -254q-74 -51 -355 -199v-2q56 21 102 21q36 0 66 -13q40 -16 40 -51q0 -25 -21 -61l-35 -64q262 185 430 395 q35 45 61 45q9 0 17 -5q20 -12 13 -40q-2 -9 -7 -16q-108 -152 -264 -287q-170 -147 -332 -237q-138 -237 -235 -335.5t-199 -98.5q-96 0 -166 55q-74 56 -74 145zM-111 -299q0 -19 21 -32t43 -13q42 0 113 59q73 60 118 135q-39 -21 -108 -45q-93 -34 -140 -58.5t-47 -45.5 z" />
<glyph unicode="{" horiz-adv-x="704" d="M194 -119.5q17 93.5 76 201.5q72 132 101 217q28 91 26.5 129t-24.5 66q-15 17 -46 29.5t-51 26t-20 40.5q0 30 6.5 48t21.5 26.5t29.5 12t41.5 9t48 12.5q42 16 93 54q50 37 105.5 134t100.5 238q40 126 102 227t124 156q56 51 127 82q63 28 106.5 36.5t95.5 8.5 q64 0 64 -43q0 -24 -19 -34.5t-65 -24t-80 -31.5q-51 -30 -94 -67q-46 -40 -94 -129.5t-82 -208.5q-74 -258 -191 -367q-54 -53 -95.5 -79.5t-113.5 -59.5l-2 -10q51 -45 78 -113q29 -63 10.5 -171.5t-84.5 -219.5q-58 -91 -88.5 -160t-34.5 -110.5t4.5 -70t29 -46t39.5 -30 t34.5 -29.5t15.5 -38q0 -25 -18 -40t-45 -15q-44 0 -89.5 19.5t-84 64t-57 105.5t-1.5 154.5z" />
<glyph unicode="|" horiz-adv-x="704" d="M-63 -274q0 103 526 1075q237 439 321 567q103 158 142 158q35 0 53 -18.5t18 -41.5t-34 -84l-150 -260q-121 -209 -240 -438l-153 -295l-125 -242l-94 -182q-68 -132 -127 -231q-43 -72 -66 -72q-29 0 -50 17t-21 47z" />
<glyph unicode="}" horiz-adv-x="704" d="M-311 -410q0 7 2 13t8.5 11.5t11.5 9.5t17.5 9l20 8t25.5 9.5t27 9.5q46 14 107 53q59 38 118.5 135.5t98.5 237.5q56 199 141 313q39 52 86 90q33 27 61 44.5t46 26.5t63 30l2 12q-39 30 -62.5 78t-30 111.5t15.5 145t73 167.5q135 212 125 299q-1 40 -18 68.5t-43 41.5 q-64 31 -64 76q0 24 18.5 38.5t45.5 14.5q57 0 112 -33.5t92 -95.5q28 -42 33.5 -103.5t-15 -142t-67.5 -167.5q-70 -127 -100 -217q-28 -92 -25.5 -129.5t25.5 -67.5q14 -17 45 -29t51.5 -26t20.5 -41q0 -31 -6.5 -49t-21.5 -26.5t-30.5 -12t-42 -9t-47.5 -14.5 q-39 -13 -94 -51q-50 -34 -106 -131.5t-101 -239.5q-41 -128 -102.5 -228.5t-124.5 -154.5q-58 -52 -125 -82q-63 -28 -107 -36.5t-96 -8.5q-63 0 -63 43z" />
<glyph unicode="~" horiz-adv-x="1421" d="M365 465q0 80 102 197q100 118 225 118q45 0 81.5 -17t58.5 -41.5t40 -49t34 -41.5t32 -17q26 -2 55 17.5t55.5 49.5t54 59.5t58 49t58.5 17.5q30 0 49.5 -13t19.5 -36q0 -75 -129 -213q-83 -92 -182 -92q-41 0 -75 17.5t-55.5 42.5t-39.5 50t-35.5 42.5t-34.5 17.5 q-27 3 -58.5 -19t-61 -55t-58 -66t-57.5 -55t-53 -20q-84 0 -84 57z" />
<glyph unicode="&#xa1;" horiz-adv-x="591" d="M-246 -530q0 20 10.5 42.5t42.5 69.5l68 99l113 157q132 194 151 223l109 164q61 91 78 121q48 75 74 106.5t42 24.5q45 0 45 -49q0 -69 -256 -543q-154 -284 -229 -391q-80 -115 -141 -115q-52 0 -79.5 26.5t-27.5 64.5zM436 723q0 53 48.5 92t109.5 39q60 0 93.5 -30.5 t33.5 -84.5q0 -55 -47.5 -94t-110.5 -39q-58 0 -92.5 31t-34.5 86z" />
<glyph unicode="&#xa2;" horiz-adv-x="1241" d="M279 559q0 94 44.5 195.5t125.5 191.5q84 95 217 155t288 66q196 316 240 316q45 0 45 -47q0 -21 -152 -279q73 -19 113.5 -55.5t40.5 -81.5q0 -59 -34.5 -101t-88.5 -42q-53 0 -53 47q0 13 12.5 43t12.5 41q0 27 -64 36l-139 -239l-232 -424q163 3 275 92q3 2 9 7 q54 44 71 47q3 1 6 1q31 0 40.5 -24.5t-5.5 -50.5q-36 -67 -146 -146q-109 -80 -266 -80q-38 0 -66 4q-156 -282 -192 -282q-21 0 -42.5 17.5t-21.5 41.5q0 67 113 271q-151 92 -151 280zM485 535q0 -61 31 -103l268 453q93 157 97 166q-144 -30 -271 -201 q-125 -168 -125 -315z" />
<glyph unicode="&#xa3;" horiz-adv-x="1499" d="M27 39q0 130 89 190.5t298 67.5q54 95 135 262q-123 -12 -172 -12q-81 0 -96 63q-15 90 86 99q156 12 270 14q77 144 160 272q82 122 174 228q201 227 454 227q114 0 174 -58.5t60 -154.5q0 -128 -115 -270q-116 -140 -221 -140q-51 0 -51 52q-3 12 27 57t67 96t67 113.5 t27 103.5q0 74 -47 74q-142 0 -514 -604q276 -15 391 -45q37 -11 51 -21.5t15 -34.5q0 -36 -43 -51q-57 -8 -105 -8q-12 0 -34 0.5t-63 1.5t-75 2q-132 6 -227 6q-37 -59 -90 -153l-68 -119q10 -2 47 -2q280 -15 467 -62q187 -46 187 -114q0 -66 -43 -100.5t-109 -34.5 q-44 0 -280 53q-254 57 -349 72l-24 -39q-38 -58 -64 -90q-16 -21 -31.5 -35.5t-25.5 -21.5t-35 -23q-53 -37 -129 -37q-91 0 -162 51q-73 49 -73 125zM186 27q0 -21 25 -21q30 -2 63.5 34.5t65.5 104.5q-72 7 -114 -28.5t-40 -89.5z" />
<glyph unicode="&#xa4;" d="M240 174q0 50 157 174q-18 49 -18 101q0 89 57 172q57 84 139 118q-131 171 -131 215q0 76 64 76q42 0 180 -176q113 82 234 82q100 0 165 -45q215 153 265 153q53 0 53 -55q0 -39 -225 -215q14 -35 14 -84q0 -149 -123 -299q170 -212 170 -250q0 -21 -19.5 -37 t-52.5 -16q-43 0 -208 195q-147 -111 -285 -111q-98 0 -178 53q-153 -114 -205 -114q-22 0 -37.5 17t-15.5 46zM555 387q0 -86 84 -86q119 0 258 148t139 284q0 92 -82 92q-104 0 -180 -63q-39 -31 -59 -51l-56 -58q-104 -134 -104 -266z" />
<glyph unicode="&#xa5;" horiz-adv-x="1468" d="M231 422q-2 37 22 57t75 23q164 7 348 10l59 98q-10 -2 -47 -2q-237 -3 -252 -2q-71 -3 -86 56q-15 77 78 86q181 15 379 18q7 11 20 53q27 87 33.5 164t-4.5 127.5t-29.5 87.5t-38 53.5t-34.5 16.5q-50 0 -166 -94q-116 -93 -135 -93q-27 0 -54.5 29.5t-27.5 69.5 q0 64 127 135q130 74 276 74q134 0 204 -115.5t52 -337.5q186 189 393 332q210 145 314 145q59 0 90 -27t31 -65q0 -29 -99 -84q-104 -58 -299 -182q-197 -123 -389 -293q161 -5 236 -17q49 -9 61 -19q10 -10 16 -26q18 -40 -22 -55q-35 -16 -102 -18l-78 -4q-60 0 -111 -2 q-73 0 -123 -3l-43 -104q275 0 316 -6q15 -4 20.5 -6.5t15.5 -8t13.5 -14.5t3.5 -22q2 -25 -15.5 -39t-54.5 -17q-42 -7 -364 -22q-92 -182 -193 -307t-180 -125q-98 0 -98 102q0 25 41 90q19 31 43 62q68 90 120 164q-140 -7 -266 -7q-73 0 -76 64z" />
<glyph unicode="&#xa6;" horiz-adv-x="700" d="M-80 -279q0 53 53 156l45 94q4 8 23 42t29 55l41 73q121 232 161 287q33 45 62 45q34 0 53 -18t19 -41q0 -26 -48 -125l-45 -90l-59 -115l-57 -111l-47 -90l-48 -90q-27 -57 -59 -100t-49 -35q-74 0 -74 63zM475 770q0 46 60 166l53 102l65 117l54 94q30 58 55 99l47 86 q37 53 59 76.5t45 23.5q34 0 53 -18t19 -39q0 -34 -47 -115l-43 -78q-54 -94 -104 -176q-8 -13 -27.5 -49.5t-32.5 -57.5q-54 -101 -92 -163q-45 -74 -66 -97q-23 -32 -49 -32q-49 0 -49 61z" />
<glyph unicode="&#xa7;" horiz-adv-x="1630" d="M106 -45q0 58 18.5 105t46 75t62 47t64.5 26t55 7q37 0 37 -35q0 -28 -55 -110t-55 -133q0 -62 49 -102t147 -40q182 0 307 84q125 82 125 180q0 114 -219 187q-45 14 -68 22t-67.5 24t-69.5 29.5t-61 34t-56.5 42.5t-41 49.5t-29.5 61t-8 71.5q0 148 123 256 q119 104 311 149q-31 45 -31 100q0 195 187 318t426 123q163 0 264 -76q102 -77 102 -186q0 -118 -88 -179q-86 -59 -164 -59q-43 0 -43 39q0 30 68 113q67 82 67 125q0 37 -37 62.5t-100 25.5q-170 0 -297 -86t-127 -203q0 -43 54.5 -81t154.5 -79q50 -19 88 -36t86.5 -43 t83.5 -56t66 -68.5t47 -87t16 -104.5q0 -163 -107.5 -274.5t-291.5 -155.5q10 -38 10 -70q0 -96 -51 -178.5t-135 -136t-190 -82.5t-216 -27q-217 0 -336 101q-121 103 -121 231zM545 600q0 -72 69 -123q70 -49 203 -102q137 -54 191 -92q136 29 219.5 104.5t83.5 171.5 q0 102 -97 160q-47 33 -88 51q-52 23 -114 45q-54 19 -109 43q-144 -14 -254 -88q-104 -70 -104 -170z" />
<glyph unicode="&#xa8;" horiz-adv-x="700" d="M254 1075q0 49 41.5 85t95.5 36q51 0 82 -29t31 -80q0 -49 -42 -83.5t-97 -34.5q-52 0 -81.5 28t-29.5 78zM600 1075q0 49 41.5 85t97.5 36q51 0 81 -29t30 -80q0 -49 -43 -83.5t-98 -34.5q-50 0 -79.5 28.5t-29.5 77.5z" />
<glyph unicode="&#xa9;" horiz-adv-x="1796" d="M223 481q0 142 76 291q78 153 190 250q82 149 295 276q213 125 484 125q288 0 456 -149q170 -147 170 -412q0 -176 -76.5 -355.5t-209.5 -324.5q-129 -141 -316 -229q-188 -90 -385 -90q-292 0 -487 192q-197 194 -197 426zM430 375q0 -165 113 -268t315 -103 q212 0 416 133q199 130 328 346q124 208 124 435q0 175 -108 280q-107 107 -264 107q-361 0 -590 -197q10 -17 10 -31q0 -7 -3 -15t-10 -18t-13.5 -18.5t-19.5 -21.5t-22.5 -22t-27 -25.5t-27.5 -26.5q-41 -41 -100 -117q-53 -70 -87 -186t-34 -252zM674 518q0 191 203 385 q207 195 409 195q88 0 144.5 -39.5t56.5 -95.5q0 -70 -45 -127q-43 -58 -96 -58q-52 0 -52 35q0 29 27 82q14 29 20.5 46t6.5 29.5t-8.5 17.5t-26.5 5q-133 0 -271 -182q-137 -180 -137 -334q0 -51 18 -72.5t64 -21.5q69 0 172 68q14 8 32.5 22.5t31.5 21.5t26 7 q37 0 37 -39q0 -63 -104 -139t-232 -76q-125 0 -200.5 70t-75.5 200z" />
<glyph unicode="&#xaa;" horiz-adv-x="698" d="M262 705q0 158 154 309q155 149 334 149q93 0 151 -73q25 14 68 14q44 0 59 -25.5t-10 -62.5q-41 -75 -94 -166q-31 -53 -62 -113l-49 -96q-28 -54 -48 -75t-48 -21q-55 0 -55 63q0 56 36 127h-6q-45 -68 -131 -129q-80 -57 -149 -57q-65 0 -107.5 40t-42.5 116zM426 723 q0 -25 20 -25q78 0 195 97q119 97 201 221q-2 15 -24 28t-52 13q-108 0 -225 -123q-115 -124 -115 -211z" />
<glyph unicode="&#xab;" horiz-adv-x="1230" d="M287 492q0 67 75 118q342 232 441 232q49 0 49 -45q0 -25 -80 -84q-94 -72 -182 -131q-104 -72 -135 -103q23 -23 147 -170q78 -90 78 -123q0 -18 -13 -32.5t-30 -14.5q-27 0 -74 41q-53 43 -108 94l-84 74q-58 67 -70 91q-14 26 -14 53zM616 457q0 9 3 19t6 15t9.5 15 t8.5 12q1 2 43 33q5 5 27 18t24 15q76 45 129 82q18 13 68 42.5t65 39.5q188 114 244 114q47 0 47 -45q0 -23 -92 -94q-116 -86 -215 -152q-123 -85 -160 -116q26 -25 129 -152q78 -90 78 -121q0 -19 -13 -34t-30 -15q-28 0 -74 43q-87 76 -184 154q-113 89 -113 127z" />
<glyph unicode="&#xac;" d="M319 563q0 29 25 50t64 26q131 20 581 20q120 0 170.5 -33t50.5 -116q0 -160 -159 -354q-54 -60 -99 -60q-40 0 -50 34.5t16 72.5q29 57 57 133q31 85 31 115q0 36 -25 48.5t-90 12.5q-204 0 -471 -18q-57 1 -79 16.5t-22 52.5z" />
<glyph unicode="&#xad;" horiz-adv-x="837" d="M289 543q0 65 88 71q110 4 180 4q114 0 231 -6q80 -3 80 -57q0 -40 -51 -55q-31 -8 -190 -25q-178 -16 -219 -16q-66 0 -92.5 20t-26.5 64z" />
<glyph unicode="&#xae;" horiz-adv-x="1153" d="M276 870q0 86 41 171t107 139q43 101 170 184q131 84 309 84q229 0 363 -119q137 -119 137 -323q0 -232 -164 -414q-162 -180 -412 -180q-222 0 -387 145q-164 144 -164 313zM442 842q0 -148 90 -235t248 -87q194 0 342 160q148 165 148 362q0 144 -88 226 q-90 84 -211 84q-246 0 -377 -125q12 -15 12 -27q0 -8 -6 -19t-21 -29t-23.5 -27t-31.5 -33q-34 -35 -58 -102.5t-24 -147.5zM614 1149q0 38 70 65q76 29 158 29q125 0 197.5 -46t72.5 -134q0 -56 -39 -102.5t-100 -59.5q4 -8 108 -121q37 -34 37 -57q0 -17 -15 -29t-38 -12 q-49 0 -102 59q-75 68 -129 131q-5 8 -24 26.5t-19 27.5q0 37 55 43q54 5 97.5 40t43.5 76q0 64 -102 64q-44 0 -105 -23q2 -4 2 -16q0 -2 -0.5 -19.5t-1.5 -55.5t-2 -81q0 -106 -4 -176q-3 -88 -51 -88q-78 0 -78 103q0 45 10 192q9 77 15 105q-23 4 -39.5 22t-16.5 37z " />
<glyph unicode="&#xaf;" horiz-adv-x="700" d="M272 1174q0 68 72 71q29 2 170 2q215 0 332 -8q72 -6 72 -65q0 -40 -46 -52l-235 -24q-226 -19 -258 -19q-107 0 -107 95z" />
<glyph unicode="&#xb0;" horiz-adv-x="698" d="M406 1057q0 74 49 147q51 75 118 101q49 70 131 117.5t166 47.5q105 0 168.5 -57.5t63.5 -150.5q0 -156 -148 -301q-145 -142 -295 -142q-107 0 -182 72q-71 71 -71 166zM569 1010q0 -66 68 -66q92 0 199 113q108 114 108 221q0 72 -61 72q-106 0 -224 -127 q-90 -113 -90 -213z" />
<glyph unicode="&#xb1;" d="M150 186q0 67 94 76q118 4 336 4q269 0 450 -14q50 -5 70 -16t20 -37q0 -43 -69 -58q-178 -35 -775 -35q-126 0 -126 80zM326 811q0 60 73 66q123 8 263 8h108q130 274 170 327q41 56 82 56q47 0 47 -45q0 -25 -22 -84q-16 -41 -27 -60l-82 -188q288 0 350 -6 q74 -3 74 -51q0 -26 -12 -36.5t-37 -15.5q-65 -17 -439 -32l-51 -132q-77 -179 -102 -221q-33 -62 -92 -53q-76 21 -49 100q60 155 125 299q-60 -1 -126.5 -2t-102 -1.5t-50.5 -0.5q-55 0 -77.5 17t-22.5 55z" />
<glyph unicode="&#xb4;" horiz-adv-x="700" d="M453 1004q0 17 15.5 37t80.5 92q71 79 84 94l80 92l61 63q66 66 100 66t55 -19.5t21 -46.5q0 -32 -55 -84l-64 -53l-206 -170q-55 -45 -86 -76q-41 -30 -54 -30q-12 0 -22 11t-10 24z" />
<glyph unicode="&#xb6;" horiz-adv-x="1611" d="M180 -365q0 113 420 750q-321 73 -321 344q0 101 54 202.5t156 188.5q105 93 273 147t368 54q52 0 125 -8q111 147 205 254q35 35 80 35q43 0 43 -39q0 -18 -174 -277q101 -30 139 -47l115 150q35 41 94 41q53 0 53 -41q0 -27 -129 -224q76 -55 76 -98q0 -38 -20.5 -61 t-53.5 -23q-50 0 -79 39l-11 10l-288 -452q20 8 98 47q108 57 133 57q31 0 48.5 -20t17.5 -50q0 -58 -117 -125q-116 -66 -299 -100q-172 -281 -309 -532q-76 -136 -111 -181q-35 -44 -72 -41q-53 2 -78.5 38.5t-5.5 95.5q37 108 342 593q-18 -2 -80 -2h-59 q-153 -248 -364 -632q-66 -125 -102.5 -168t-72.5 -41q-42 1 -68 34.5t-26 81.5zM537 680q0 -125 145 -172q267 393 473 672q-274 -3 -448 -154q-170 -150 -170 -346zM891 489q71 3 149 13q193 306 424 626q-66 26 -135 39q-226 -337 -438 -678z" />
<glyph unicode="&#xb7;" horiz-adv-x="1030" d="M508 494q0 53 47.5 93t108.5 40q60 0 93.5 -31t33.5 -86q0 -54 -48 -92.5t-110 -38.5q-57 0 -91 30.5t-34 84.5z" />
<glyph unicode="&#xb8;" horiz-adv-x="700" d="M-66 -395q0 53 32 86t73 33q29 0 29 -31q0 -6 -11.5 -36t-11.5 -44q0 -34 25 -50t86 -16q77 0 139 45q65 44 65 107q0 28 -20 45.5t-47 17.5q-9 0 -36.5 -5t-35.5 -5q-37 0 -37 41q0 27 33 53q138 111 197 211h110q-80 -127 -172 -207q74 -7 124 -48.5t50 -114.5 q0 -114 -100 -189q-103 -80 -223 -80q-143 0 -205 62q-64 58 -64 125z" />
<glyph unicode="&#xba;" horiz-adv-x="698" d="M264 764q0 75 50.5 149.5t119.5 100.5q49 70 130 117t163 47q105 0 169.5 -58t64.5 -151q0 -156 -148 -301q-145 -142 -295 -142q-112 0 -182 70q-72 72 -72 168zM428 717q0 -66 68 -66q91 0 198 113q109 115 109 221q0 72 -62 72q-104 0 -217 -119l-43 -55 q-17 -24 -35 -73t-18 -93z" />
<glyph unicode="&#xbb;" d="M184 178q0 25 90 94q86 64 215 150q105 69 164 119q-37 37 -131 151q-78 90 -78 121q0 19 13 34t30 15q30 0 76 -43q32 -30 185 -153q110 -89 110 -127q0 -7 -1.5 -13.5t-3 -10.5t-5 -11t-5.5 -9.5t-7.5 -10t-6.5 -9.5q-3 -4 -20.5 -17t-20.5 -16q-4 -3 -25.5 -15 t-25.5 -15q-76 -45 -129 -82q-18 -13 -68 -42.5t-65 -39.5q-190 -115 -244 -115q-47 0 -47 45zM623 199q0 25 77 84l183 129q100 67 137 104q-32 32 -76 86q-16 19 -30.5 36t-26.5 31t-15 17q-77 95 -77 123q0 18 13 32.5t30 14.5q26 0 73 -41q62 -50 109 -94q79 -73 82 -76 q86 -74 86 -141t-76 -119q-340 -231 -438 -231q-51 0 -51 45z" />
<glyph unicode="&#xbc;" horiz-adv-x="1894" d="M365 -27q0 32 67 117q19 25 361 438q119 145 268 324q378 460 469 555q75 78 106 78q60 0 60 -43q0 -13 -15 -36t-59 -79l-96 -117q-70 -82 -160 -192q-203 -248 -219 -268q-131 -160 -311 -388l-203 -249q-89 -116 -136 -162.5t-71 -46.5q-61 0 -61 69zM397 1102 q0 50 58 53q299 21 434 121q72 94 101.5 126t47.5 32q48 0 78.5 -17t30.5 -41q0 -25 -76 -129q-189 -268 -307 -469q-94 -155 -121 -190q-34 -43 -68 -43q-49 0 -72.5 22.5t-23.5 53.5q0 34 54.5 124t201.5 310q10 17 21 28l-4 4q-122 -61 -250 -61q-105 0 -105 76z M1090 455q0 49 127 176l83 90q67 72 103.5 102.5t60.5 30.5q121 0 121 -59q0 -16 -59 -90q-63 -79 -129 -148q-104 -113 -180 -166q54 3 126 15q75 16 183 67q108 54 192 141q74 105 111 105q100 0 100 -55q0 -33 -65 -125l-289 -435q-60 -91 -72 -106q-17 -28 -32.5 -38.5 t-38.5 -10.5q-91 0 -91 74q0 57 197 331l-4 4q-138 -75 -270 -75q-56 0 -115 47t-59 125z" />
<glyph unicode="&#xbd;" horiz-adv-x="1830" d="M365 -27q0 32 67 117q19 25 361 438q119 145 268 324q378 460 469 555q75 78 106 78q60 0 60 -43q0 -13 -15 -36t-59 -79l-96 -117q-70 -82 -160 -192q-203 -248 -219 -268q-131 -160 -311 -388l-203 -249q-89 -116 -136 -162.5t-71 -46.5q-61 0 -61 69zM397 1102 q0 50 58 53q299 21 434 121q72 94 101.5 126t47.5 32q48 0 78.5 -17t30.5 -41q0 -25 -76 -129q-189 -268 -307 -469q-94 -155 -121 -190q-34 -43 -68 -43q-49 0 -72.5 22.5t-23.5 53.5q0 34 54.5 124t201.5 310q10 17 21 28l-4 4q-122 -61 -250 -61q-105 0 -105 76zM877 70 q0 57 55 84q404 204 571.5 316.5t167.5 199.5q0 22 -15.5 38.5t-43.5 16.5q-77 0 -158 -63q-77 -62 -119 -142q-23 -51 -61 -51q-96 0 -96 113q0 90 114 172q118 86 271 86q112 0 186 -61t74 -158q0 -86 -76 -154q-7 -7 -25 -23t-25 -22t-23 -19t-29 -21.5t-33 -20 t-43 -23.5q-85 -42 -107 -55q-46 -24 -123 -54l-110 -43l-109 -41l2 -8q284 29 459 29q51 0 51 -72q0 -63 -56 -98t-130 -35q-16 0 -115 12q-102 13 -205 13q-35 0 -76 -2t-68.5 -4.5t-29.5 -2.5q-36 0 -55.5 27t-19.5 66z" />
<glyph unicode="&#xbe;" horiz-adv-x="1984" d="M231 743q0 52 35 83.5t80 31.5q23 0 39 -13t16 -28q0 -9 -16 -39t-16 -39q0 -25 30 -41t80 -16q120 0 236 72q114 74 114 161q0 66 -65 66q-21 0 -77 -16.5t-73 -16.5q-47 0 -47 45q0 21 17 35q209 157 280 217q-88 -10 -151 -10q-92 0 -135 33t-43 82q0 36 21.5 65 t59.5 29q16 0 89 -12q80 -13 135 -13q41 0 159 4q103 7 109 7q44 0 62 -11.5t18 -40.5q0 -27 -41 -57l-338 -242q86 -22 142.5 -76.5t56.5 -134.5q0 -142 -154 -237q-152 -96 -315 -96q-74 0 -132 16t-90 39.5t-52.5 53.5t-27 53.5t-6.5 45.5zM455 -27q0 32 67 117 q19 25 361 438q119 145 268 324q378 460 469 555q75 78 106 78q60 0 60 -43q0 -13 -15 -36t-59 -79l-96 -117q-70 -82 -160 -192q-203 -248 -219 -268q-131 -160 -311 -388l-203 -249q-89 -116 -136 -162.5t-71 -46.5q-61 0 -61 69zM1180 455q0 49 127 176l84 90 q68 72 104 102.5t59 30.5q121 0 121 -59q0 -16 -59 -90q-63 -79 -129 -148q-104 -113 -180 -166q56 3 127 15q73 16 182 67q108 54 192 141q74 105 111 105q100 0 100 -55q0 -33 -65 -125l-289 -435q-60 -91 -72 -106q-17 -28 -32.5 -38.5t-38.5 -10.5q-90 0 -90 74 q0 59 196 331l-4 4q-138 -75 -270 -75q-56 0 -115 47t-59 125z" />
<glyph unicode="&#xbf;" horiz-adv-x="794" d="M-252 -360q0 107 78.5 191.5t204.5 137.5q49 20 137.5 52t144.5 54.5t117 52.5t90.5 63t28.5 69q0 31 -17.5 50.5t-46.5 19.5q-48 0 -118 -37q-53 -29 -86 -29q-48 0 -48 51q0 55 65 98.5t175 43.5q114 0 184 -70q72 -69 72 -156q0 -100 -79.5 -180.5t-207.5 -134.5 q-42 -18 -116.5 -46t-123 -46.5t-108.5 -47t-95.5 -53.5t-59.5 -59t-23 -70q0 -120 145 -120q70 0 130 28t92 68q82 94 125 94q30 0 50.5 -29t20.5 -67q0 -99 -97 -169.5t-273 -70.5q-170 0 -265 92q-96 93 -96 220zM551 721q0 53 48.5 92t109.5 39q60 0 93.5 -30.5 t33.5 -84.5q0 -55 -47.5 -94t-110.5 -39q-58 0 -92.5 31t-34.5 86z" />
<glyph unicode="&#xc0;" horiz-adv-x="1636" d="M-143 31q0 39 53 108q18 25 92 99l135 137l250 252q-98 21 -98 75q0 23 15 44.5t38 21.5q25 0 168 -20q400 394 631 542q236 154 485 154q105 0 162 -53t57 -150q0 -126 -190 -485q136 16 145 16q31 0 31 -31q0 -36 -52.5 -58.5t-174.5 -35.5q-1 0 -4.5 -1t-4.5 -1 q-76 -142 -149 -264q-179 -305 -193 -324q-41 -80 -123 -80q-33 0 -56 28t-23 77q0 138 188 403l92 136q-237 -19 -563 -19h-76q-405 -442 -524 -553q-118 -112 -215 -112q-96 0 -96 94zM807 727h61q288 0 543 12q268 416 268 516q0 78 -73 78q-226 0 -799 -606zM1432 1847 q-11 29 8.5 59.5t54.5 37.5q47 14 88.5 -22t139.5 -158q40 -49 63 -78q60 -73 63 -95q9 -28 -28 -37q-5 0 -19.5 -0.5t-19.5 5.5q-21 13 -25 14q-47 35 -61 43q-249 159 -264 231z" />
<glyph unicode="&#xc1;" horiz-adv-x="1636" d="M-143 31q0 39 53 108q18 25 92 99l135 137l250 252q-98 21 -98 75q0 23 15 44.5t38 21.5q25 0 168 -20q400 394 631 542q236 154 485 154q105 0 162 -53t57 -150q0 -126 -190 -485q136 16 145 16q31 0 31 -31q0 -36 -52.5 -58.5t-174.5 -35.5q-1 0 -4.5 -1t-4.5 -1 q-76 -142 -149 -264q-179 -305 -193 -324q-41 -80 -123 -80q-33 0 -56 28t-23 77q0 138 188 403l92 136q-237 -19 -563 -19h-76q-405 -442 -524 -553q-118 -112 -215 -112q-96 0 -96 94zM807 727h61q288 0 543 12q268 416 268 516q0 78 -73 78q-226 0 -799 -606zM1716 1581 q4 28 20 46.5t68 60.5q192 156 244 192q77 53 115 53q30 0 52.5 -27t22.5 -63q0 -52 -86 -102q-9 -5 -39 -24.5t-57 -33.5l-61 -28q-115 -56 -144 -72q-75 -37 -104 -37q-31 0 -31 35z" />
<glyph unicode="&#xc2;" horiz-adv-x="1636" d="M-143 31q0 39 53 108q18 25 92 99l135 137l250 252q-98 21 -98 75q0 23 15 44.5t38 21.5q25 0 168 -20q400 394 631 542q236 154 485 154q105 0 162 -53t57 -150q0 -126 -190 -485q136 16 145 16q31 0 31 -31q0 -36 -52.5 -58.5t-174.5 -35.5q-1 0 -4.5 -1t-4.5 -1 q-76 -142 -149 -264q-179 -305 -193 -324q-41 -80 -123 -80q-33 0 -56 28t-23 77q0 138 188 403l92 136q-237 -19 -563 -19h-76q-405 -442 -524 -553q-118 -112 -215 -112q-96 0 -96 94zM807 727h61q288 0 543 12q268 416 268 516q0 78 -73 78q-226 0 -799 -606zM1315 1618 q0 34 106 131q99 85 234 164q131 76 184 76q75 0 96 -66q9 -34 52 -156q63 -154 63 -168q0 -30 -51 -30q-121 0 -215 254l-64 -31q-101 -49 -192 -111q-97 -69 -123 -84q-29 -16 -51 -16q-39 0 -39 37z" />
<glyph unicode="&#xc3;" horiz-adv-x="1636" d="M-143 31q0 39 53 108q18 25 92 99l135 137l250 252q-98 21 -98 75q0 23 15 44.5t38 21.5q25 0 168 -20q400 394 631 542q236 154 485 154q105 0 162 -53t57 -150q0 -126 -190 -485q136 16 145 16q31 0 31 -31q0 -36 -52.5 -58.5t-174.5 -35.5q-1 0 -4.5 -1t-4.5 -1 q-76 -142 -149 -264q-179 -305 -193 -324q-41 -80 -123 -80q-33 0 -56 28t-23 77q0 138 188 403l92 136q-237 -19 -563 -19h-76q-405 -442 -524 -553q-118 -112 -215 -112q-96 0 -96 94zM807 727h61q288 0 543 12q268 416 268 516q0 78 -73 78q-226 0 -799 -606zM1473 1620 q0 61 88 152q88 94 202 94q44 0 105 -58q61 -55 106 -55q32 0 88 62q58 61 86 61q43 0 43 -37q0 -64 -90 -160q-88 -94 -198 -94q-18 0 -34.5 4t-36 16.5t-27.5 17.5t-31.5 25t-24.5 21q-32 29 -61 29q-30 0 -86 -62q-53 -59 -89 -59q-40 0 -40 43z" />
<glyph unicode="&#xc4;" horiz-adv-x="1636" d="M-143 31q0 39 53 108q18 25 92 99l135 137l250 252q-98 21 -98 75q0 23 15 44.5t38 21.5q25 0 168 -20q400 394 631 542q236 154 485 154q105 0 162 -53t57 -150q0 -126 -190 -485q136 16 145 16q31 0 31 -31q0 -36 -52.5 -58.5t-174.5 -35.5q-1 0 -4.5 -1t-4.5 -1 q-76 -142 -149 -264q-179 -305 -193 -324q-41 -80 -123 -80q-33 0 -56 28t-23 77q0 138 188 403l92 136q-237 -19 -563 -19h-76q-405 -442 -524 -553q-118 -112 -215 -112q-96 0 -96 94zM807 727h61q288 0 543 12q268 416 268 516q0 78 -73 78q-226 0 -799 -606zM1419 1704 q0 53 45 90t103 37q123 0 123 -113q0 -50 -47 -87.5t-105 -37.5q-119 0 -119 111zM1810 1704q0 50 47.5 87.5t108.5 37.5q117 0 117 -113q0 -50 -45.5 -86.5t-102.5 -36.5q-58 0 -91.5 29t-33.5 82z" />
<glyph unicode="&#xc5;" horiz-adv-x="1636" d="M-143 31q0 39 53 108q18 25 92 99l135 137l250 252q-98 21 -98 75q0 23 15 44.5t38 21.5q25 0 168 -20q400 394 631 542q236 154 485 154q105 0 162 -53t57 -150q0 -126 -190 -485q136 16 145 16q31 0 31 -31q0 -36 -52.5 -58.5t-174.5 -35.5q-1 0 -4.5 -1t-4.5 -1 q-76 -142 -149 -264q-179 -305 -193 -324q-41 -80 -123 -80q-33 0 -56 28t-23 77q0 138 188 403l92 136q-237 -19 -563 -19h-76q-405 -442 -524 -553q-118 -112 -215 -112q-96 0 -96 94zM807 727h61q288 0 543 12q268 416 268 516q0 78 -73 78q-226 0 -799 -606zM1479 1755 q0 96 71.5 167t175.5 83q74 39 164 39q93 0 144 -42t51 -116q0 -124 -121 -227q-119 -98 -260 -98q-102 0 -163.5 54t-61.5 140zM1622 1741q0 -58 59 -58q76 0 166 78q90 81 90 133t-53 52q-36 0 -88 -15q-16 -16 -61 -39q-113 -60 -113 -151z" />
<glyph unicode="&#xc6;" horiz-adv-x="2533" d="M-143 31q0 39 53 108q18 25 92 99l135 137l269 268q-80 35 -80 98q0 40 22.5 72.5t61.5 32.5q3 0 22 -2.5t65 -8.5t91 -12q355 344 575 482q227 139 463 139q142 0 195 -96q313 20 1075 20q53 0 78.5 -34t25.5 -89q0 -31 -47 -43q-14 -3 -514 -51q-477 -43 -549 -43 q-33 0 -71 10q-36 -117 -148 -330q186 4 508 23q123 8 180 8q54 0 54 -59q0 -42 -29 -58t-123 -30q-273 -43 -688 -70l-244 -418q637 58 895 58q236 0 236 -144q0 -36 -12.5 -59t-30.5 -25q-75 -6 -621 -24q-543 -21 -592 -21q-23 0 -49 11q-9 -3 -25 -3q-33 0 -56 28 t-23 77q0 138 188 403l72 105q-45 -2 -199 -2q-322 0 -426 8q-390 -430 -516 -547q-121 -112 -217 -112t-96 94zM874 797q206 -13 500 -13h66q239 376 239 471q0 78 -94 78q-35 0 -151 -67q-97 -61 -146 -97q-168 -123 -414 -372z" />
<glyph unicode="&#xc7;" horiz-adv-x="1269" d="M102 451q0 163 109 340q109 173 268 307q157 133 338 215q183 86 320 86q167 0 251.5 -67t84.5 -167q0 -99 -105 -194q-108 -97 -194 -97q-62 0 -62 50q0 31 84 141q84 113 84 174q0 41 -53 41q-159 0 -363 -139q-200 -138 -344 -350q-143 -207 -143 -392q0 -158 86 -223 q86 -63 207 -63q144 0 362 96q116 52 235.5 150t213.5 223q35 41 49 41q31 0 31 -33q0 -35 -97 -170q-89 -124 -235 -248q-233 -202 -529 -229q-46 -64 -104 -113q74 -7 124 -49t50 -115q0 -113 -100 -188q-103 -80 -224 -80q-142 0 -206 61q-62 59 -62 125q0 53 32 86 t73 33q28 0 28 -31q0 -6 -11 -36t-11 -44q0 -34 24.5 -49.5t85.5 -15.5q78 0 140 45q65 44 65 106q0 28 -20 46t-47 18q-9 0 -36.5 -5t-35.5 -5q-37 0 -37 41q0 27 33 53q77 61 121 111q-69 3 -135.5 23t-129.5 61t-110.5 98.5t-76 143.5t-28.5 188z" />
<glyph unicode="&#xc8;" horiz-adv-x="1280" d="M68 289q0 111 61.5 210.5t157.5 162.5q91 59 179.5 92.5t149.5 33.5v3q-69 3 -124 61q-56 62 -56 145q0 170 215 308q216 137 502 137q84 0 148.5 -16.5t102 -41.5t61.5 -59.5t32 -66t8 -64.5q0 -62 -45.5 -96.5t-99.5 -34.5q-31 0 -53.5 17t-22.5 42t43 68q43 46 43 67 q0 31 -151 31q-195 0 -394 -123q-198 -122 -198 -235q0 -38 42 -59t111 -21q62 0 164 6q91 8 164 8q104 0 104 -86q0 -61 -86 -61q-17 0 -73.5 1t-71.5 1q-163 0 -377 -96q-114 -49 -186 -146t-72 -217q0 -80 59.5 -126t172.5 -46q137 0 282 45q160 49 330 162 q179 117 305 287q35 41 51 41q31 0 31 -33q0 -19 -43 -86q-42 -67 -123 -164q-85 -102 -166 -168q-309 -260 -612 -260q-145 0 -266 39q-130 40 -214.5 130t-84.5 208zM950 1821q-11 29 9 59t55 37q47 14 88.5 -22t139.5 -158q40 -49 63 -78q60 -73 63 -94q9 -28 -29 -37 q-9 1 -14.5 0t-10 -0.5t-14.5 4.5q-22 14 -24 14q-44 33 -62 43q-248 159 -264 232z" />
<glyph unicode="&#xc9;" horiz-adv-x="1280" d="M68 289q0 111 61.5 210.5t157.5 162.5q91 59 179.5 92.5t149.5 33.5v3q-69 3 -124 61q-56 62 -56 145q0 170 215 308q216 137 502 137q84 0 148.5 -16.5t102 -41.5t61.5 -59.5t32 -66t8 -64.5q0 -62 -45.5 -96.5t-99.5 -34.5q-31 0 -53.5 17t-22.5 42t43 68q43 46 43 67 q0 31 -151 31q-195 0 -394 -123q-198 -122 -198 -235q0 -38 42 -59t111 -21q62 0 164 6q91 8 164 8q104 0 104 -86q0 -61 -86 -61q-17 0 -73.5 1t-71.5 1q-163 0 -377 -96q-114 -49 -186 -146t-72 -217q0 -80 59.5 -126t172.5 -46q137 0 282 45q160 49 330 162 q179 117 305 287q35 41 51 41q31 0 31 -33q0 -19 -43 -86q-42 -67 -123 -164q-85 -102 -166 -168q-309 -260 -612 -260q-145 0 -266 39q-130 40 -214.5 130t-84.5 208zM1096 1581q4 28 20 46.5t68 60.5q197 161 243 192q77 53 115 53q31 0 53.5 -27t22.5 -63q0 -52 -86 -102 q-9 -5 -39 -24.5t-57 -33.5l-62 -28q-108 -52 -143 -72q-75 -37 -105 -37t-30 35z" />
<glyph unicode="&#xca;" horiz-adv-x="1280" d="M68 289q0 111 61.5 210.5t157.5 162.5q91 59 179.5 92.5t149.5 33.5v3q-69 3 -124 61q-56 62 -56 145q0 170 215 308q216 137 502 137q84 0 148.5 -16.5t102 -41.5t61.5 -59.5t32 -66t8 -64.5q0 -62 -45.5 -96.5t-99.5 -34.5q-31 0 -53.5 17t-22.5 42t43 68q43 46 43 67 q0 31 -151 31q-195 0 -394 -123q-198 -122 -198 -235q0 -38 42 -59t111 -21q62 0 164 6q91 8 164 8q104 0 104 -86q0 -61 -86 -61q-17 0 -73.5 1t-71.5 1q-163 0 -377 -96q-114 -49 -186 -146t-72 -217q0 -80 59.5 -126t172.5 -46q137 0 282 45q160 49 330 162 q179 117 305 287q35 41 51 41q31 0 31 -33q0 -19 -43 -86q-42 -67 -123 -164q-85 -102 -166 -168q-309 -260 -612 -260q-145 0 -266 39q-130 40 -214.5 130t-84.5 208zM825 1571q0 33 107 131q101 87 233 164q131 76 185 76q75 0 96 -66q12 -46 51 -156q9 -22 22 -53 t18.5 -45t12 -31t9 -25.5t2.5 -13.5q0 -30 -52 -30q-121 0 -215 254l-63 -31q-104 -51 -193 -111q-97 -69 -123 -84q-29 -16 -51 -16q-39 0 -39 37z" />
<glyph unicode="&#xcb;" horiz-adv-x="1280" d="M68 289q0 111 61.5 210.5t157.5 162.5q91 59 179.5 92.5t149.5 33.5v3q-69 3 -124 61q-56 62 -56 145q0 170 215 308q216 137 502 137q84 0 148.5 -16.5t102 -41.5t61.5 -59.5t32 -66t8 -64.5q0 -62 -45.5 -96.5t-99.5 -34.5q-31 0 -53.5 17t-22.5 42t43 68q43 46 43 67 q0 31 -151 31q-195 0 -394 -123q-198 -122 -198 -235q0 -38 42 -59t111 -21q62 0 164 6q91 8 164 8q104 0 104 -86q0 -61 -86 -61q-17 0 -73.5 1t-71.5 1q-163 0 -377 -96q-114 -49 -186 -146t-72 -217q0 -80 59.5 -126t172.5 -46q137 0 282 45q160 49 330 162 q179 117 305 287q35 41 51 41q31 0 31 -33q0 -19 -43 -86q-42 -67 -123 -164q-85 -102 -166 -168q-309 -260 -612 -260q-145 0 -266 39q-130 40 -214.5 130t-84.5 208zM936 1688q0 53 44.5 90t102.5 37q123 0 123 -113q0 -50 -46.5 -87.5t-104.5 -37.5q-119 0 -119 111z M1327 1688q0 50 47.5 87t108.5 37q116 0 116 -112q0 -50 -45 -86.5t-102 -36.5q-58 0 -91.5 29t-33.5 82z" />
<glyph unicode="&#xcc;" horiz-adv-x="557" d="M-49 29q0 58 33 102q706 1034 706 1149q0 35 -22 35q-74 0 -162 -58q-94 -62 -156 -124q-47 -47 -129 -125q-58 -58 -80 -58q-37 0 -64.5 26t-27.5 62q0 74 96 170q97 97 236 162q142 68 258 68q59 0 119 -11q56 -6 84.5 -38t34.5 -99q0 -84 -76 -246q-71 -152 -150 -284 q-76 -128 -196 -316l-131 -204q-124 -204 -160 -246q-33 -45 -78 -45q-135 0 -135 80zM315 1835q-11 29 9 59t55 37q47 14 88.5 -22t139.5 -158q40 -49 63 -78q60 -73 63 -94q9 -28 -28 -37q-9 1 -14.5 0t-10 -0.5t-14.5 4.5q-4 2 -9.5 6t-9 6t-6.5 3q-47 35 -61 43 q-250 160 -265 231z" />
<glyph unicode="&#xcd;" horiz-adv-x="557" d="M-49 29q0 58 33 102q706 1034 706 1149q0 35 -22 35q-74 0 -162 -58q-94 -62 -156 -124q-47 -47 -129 -125q-58 -58 -80 -58q-37 0 -64.5 26t-27.5 62q0 74 96 170q97 97 236 162q142 68 258 68q59 0 119 -11q56 -6 84.5 -38t34.5 -99q0 -84 -76 -246q-71 -152 -150 -284 q-76 -128 -196 -316l-131 -204q-124 -204 -160 -246q-33 -45 -78 -45q-135 0 -135 80zM467 1575q4 28 19.5 46t68.5 60q200 163 244 193q77 53 114 53q31 0 53.5 -27t22.5 -63q0 -52 -86 -102q-9 -5 -39 -24.5t-57 -33.5l-62 -28q-108 -52 -143 -72q-75 -37 -104 -37 q-31 0 -31 35z" />
<glyph unicode="&#xce;" horiz-adv-x="557" d="M-49 29q0 58 33 102q706 1034 706 1149q0 35 -22 35q-74 0 -162 -58q-94 -62 -156 -124q-47 -47 -129 -125q-58 -58 -80 -58q-37 0 -64.5 26t-27.5 62q0 74 96 170q97 97 236 162q142 68 258 68q59 0 119 -11q56 -6 84.5 -38t34.5 -99q0 -84 -76 -246q-71 -152 -150 -284 q-76 -128 -196 -316l-131 -204q-124 -204 -160 -246q-33 -45 -78 -45q-135 0 -135 80zM188 1554q0 34 107 132q97 84 233 163q131 76 185 76q75 0 96 -65q12 -46 51 -156q9 -22 22 -53t18.5 -45t12 -31t9 -25.5t2.5 -13.5q0 -31 -52 -31q-121 0 -215 254l-63 -30 q-104 -51 -193 -111q-103 -73 -122 -84q-29 -16 -52 -16q-39 0 -39 36z" />
<glyph unicode="&#xcf;" horiz-adv-x="557" d="M-49 29q0 58 33 102q706 1034 706 1149q0 35 -22 35q-74 0 -162 -58q-94 -62 -156 -124q-47 -47 -129 -125q-58 -58 -80 -58q-37 0 -64.5 26t-27.5 62q0 74 96 170q97 97 236 162q142 68 258 68q59 0 119 -11q56 -6 84.5 -38t34.5 -99q0 -84 -76 -246q-71 -152 -150 -284 q-76 -128 -196 -316l-131 -204q-124 -204 -160 -246q-33 -45 -78 -45q-135 0 -135 80zM303 1686q0 53 44.5 89.5t103.5 36.5q122 0 122 -112q0 -50 -46.5 -87.5t-104.5 -37.5q-119 0 -119 111zM694 1686q0 50 47.5 87t108.5 37q117 0 117 -112q0 -50 -45.5 -86.5 t-102.5 -36.5q-58 0 -91.5 29t-33.5 82z" />
<glyph unicode="&#xd0;" horiz-adv-x="1611" d="M76 676q0 78 102 84h55q110 4 222 4l43 63q178 266 266 383q-200 -56 -385 -200q-51 -39 -88 -39q-60 0 -60 88q0 82 70.5 151.5t187.5 112.5q221 81 449 94q70 70 104 70q52 0 52 -37q0 -6 -11 -35q177 -17 318 -88q131 -66 210 -186t79 -301q0 -152 -75 -311.5 t-204 -288.5q-128 -128 -303 -209q-177 -80 -363 -80q-160 0 -264 53t-141 139q-86 -151 -141 -151q-53 0 -81 32t-28 74q0 98 250 490q-29 -2 -123 -2q-141 0 -141 90zM393 238q113 -93 279 -93q216 0 399 119q182 117 285.5 298.5t103.5 375.5q0 91 -34 157t-95 97 q-111 57 -235 57q-23 0 -105 -4l-262 -422l-37 -59q247 -3 318 -8q96 -9 96 -58q0 -39 -66 -57q-117 -23 -446 -43z" />
<glyph unicode="&#xd1;" horiz-adv-x="1335" d="M-59 41q0 71 86 207q79 125 270 395q201 282 294 433.5t93 209.5q0 74 -55 74q-74 0 -162 -55q-80 -49 -150 -119l-118 -119q-56 -53 -74 -53q-84 0 -84 88q0 133 162 258q165 127 377 127q134 0 194 -72q62 -71 62 -151q0 -135 -48 -211q358 385 555 385q93 0 141 -58 t48 -149q0 -84 -84 -250q-73 -145 -186 -311q-102 -147 -185 -301q-84 -156 -84 -226q0 -51 37 -51q133 0 418 350q42 45 59 45q25 0 32.5 -21t-7.5 -40q-161 -234 -290.5 -350.5t-246.5 -116.5q-76 0 -147 86q-70 88 -70 188q0 101 88 259q91 164 197 299q89 113 194 274 q91 139 91 190q0 23 -9 29.5t-41 5.5q-119 -3 -419 -309q-306 -312 -555 -721l-64 -104q-36 -58 -61 -95q-45 -59 -58 -71q-47 -47 -82 -47q-47 0 -82.5 30t-35.5 68zM958 1620q0 60 89 152q88 94 202 94q44 0 105 -58q61 -55 106 -55q32 0 88 62q58 61 86 61q43 0 43 -37 q0 -64 -90 -160q-88 -94 -198 -94q-58 0 -119 55q-61 58 -96 58q-31 0 -87 -62q-53 -59 -88 -59q-41 0 -41 43z" />
<glyph unicode="&#xd2;" horiz-adv-x="1536" d="M121 457q0 161 65 315q65 149 164 266q135 155 297 263.5t219 103.5q48 0 45 -47q0 -2 -12 -23q169 129 377 129q166 0 278 -118q115 -121 115 -342q0 -173 -80 -365q-80 -189 -213 -346q-132 -156 -323 -258q-189 -101 -391 -101q-126 0 -224 35t-156 88.5t-96 125.5 t-51.5 138.5t-13.5 135.5zM377 360q0 -149 72 -215.5t194 -66.5q150 0 299 104q148 104 254 258q107 155 172 334q68 180 68 324q0 121 -53.5 200.5t-129.5 79.5q-110 0 -211 -84q-97 -85 -163 -196q-27 -44 -45 -84q-26 -51 -40.5 -71.5t-27.5 -20.5q-61 0 -61 77 q0 117 81 226q-67 -64 -133 -144q-63 -75 -129 -180q-147 -235 -147 -541zM1010 1870q-11 29 8.5 59t54.5 37q47 14 88.5 -22t139.5 -158q40 -49 63 -78q60 -73 63 -94q9 -28 -28 -37q-9 1 -14.5 0t-10 -0.5t-14.5 4.5q-21 13 -25 14q-47 35 -61 43q-248 159 -264 232z" />
<glyph unicode="&#xd3;" horiz-adv-x="1536" d="M121 457q0 161 65 315q65 149 164 266q135 155 297 263.5t219 103.5q48 0 45 -47q0 -2 -12 -23q169 129 377 129q166 0 278 -118q115 -121 115 -342q0 -173 -80 -365q-80 -189 -213 -346q-132 -156 -323 -258q-189 -101 -391 -101q-126 0 -224 35t-156 88.5t-96 125.5 t-51.5 138.5t-13.5 135.5zM377 360q0 -149 72 -215.5t194 -66.5q150 0 299 104q148 104 254 258q107 155 172 334q68 180 68 324q0 121 -53.5 200.5t-129.5 79.5q-110 0 -211 -84q-97 -85 -163 -196q-27 -44 -45 -84q-26 -51 -40.5 -71.5t-27.5 -20.5q-61 0 -61 77 q0 117 81 226q-67 -64 -133 -144q-63 -75 -129 -180q-147 -235 -147 -541zM1212 1604q4 28 19.5 46t68.5 60q200 163 244 193q77 53 115 53q31 0 53.5 -27t22.5 -63q0 -53 -86 -103q-4 -3 -36.5 -22.5t-60.5 -34.5l-61 -29q-121 -59 -143 -71q-75 -37 -105 -37q-31 0 -31 35 z" />
<glyph unicode="&#xd4;" horiz-adv-x="1536" d="M121 457q0 161 65 315q65 149 164 266q135 155 297 263.5t219 103.5q48 0 45 -47q0 -2 -12 -23q169 129 377 129q166 0 278 -118q115 -121 115 -342q0 -173 -80 -365q-80 -189 -213 -346q-132 -156 -323 -258q-189 -101 -391 -101q-126 0 -224 35t-156 88.5t-96 125.5 t-51.5 138.5t-13.5 135.5zM377 360q0 -149 72 -215.5t194 -66.5q150 0 299 104q148 104 254 258q107 155 172 334q68 180 68 324q0 121 -53.5 200.5t-129.5 79.5q-110 0 -211 -84q-97 -85 -163 -196q-27 -44 -45 -84q-26 -51 -40.5 -71.5t-27.5 -20.5q-61 0 -61 77 q0 117 81 226q-67 -64 -133 -144q-63 -75 -129 -180q-147 -235 -147 -541zM950 1599q0 34 107 132q97 84 233 163q131 76 185 76q75 0 96 -65q12 -46 51 -156q9 -22 22 -53t18.5 -45t12 -31t9 -25.5t2.5 -13.5q0 -31 -52 -31q-121 0 -215 254l-63 -30q-104 -51 -193 -111 q-97 -69 -123 -84q-29 -16 -51 -16q-39 0 -39 36z" />
<glyph unicode="&#xd5;" horiz-adv-x="1536" d="M121 457q0 161 65 315q65 149 164 266q135 155 297 263.5t219 103.5q48 0 45 -47q0 -2 -12 -23q169 129 377 129q166 0 278 -118q115 -121 115 -342q0 -173 -80 -365q-80 -189 -213 -346q-132 -156 -323 -258q-189 -101 -391 -101q-126 0 -224 35t-156 88.5t-96 125.5 t-51.5 138.5t-13.5 135.5zM377 360q0 -149 72 -215.5t194 -66.5q150 0 299 104q148 104 254 258q107 155 172 334q68 180 68 324q0 121 -53.5 200.5t-129.5 79.5q-110 0 -211 -84q-97 -85 -163 -196q-27 -44 -45 -84q-26 -51 -40.5 -71.5t-27.5 -20.5q-61 0 -61 77 q0 117 81 226q-67 -64 -133 -144q-63 -75 -129 -180q-147 -235 -147 -541zM1028 1620q0 61 88 152q88 94 203 94q43 0 104 -58q61 -55 107 -55q32 0 88 62q58 61 86 61q43 0 43 -37q0 -64 -90 -160q-88 -94 -199 -94q-58 0 -119 55q-61 58 -96 58q-30 0 -86 -62 q-53 -59 -88 -59q-41 0 -41 43z" />
<glyph unicode="&#xd6;" horiz-adv-x="1536" d="M121 457q0 161 65 315q65 149 164 266q135 155 297 263.5t219 103.5q48 0 45 -47q0 -2 -12 -23q169 129 377 129q166 0 278 -118q115 -121 115 -342q0 -173 -80 -365q-80 -189 -213 -346q-132 -156 -323 -258q-189 -101 -391 -101q-126 0 -224 35t-156 88.5t-96 125.5 t-51.5 138.5t-13.5 135.5zM377 360q0 -149 72 -215.5t194 -66.5q150 0 299 104q148 104 254 258q107 155 172 334q68 180 68 324q0 121 -53.5 200.5t-129.5 79.5q-110 0 -211 -84q-97 -85 -163 -196q-27 -44 -45 -84q-26 -51 -40.5 -71.5t-27.5 -20.5q-61 0 -61 77 q0 117 81 226q-67 -64 -133 -144q-63 -75 -129 -180q-147 -235 -147 -541zM977 1704q0 53 44.5 90t102.5 37q123 0 123 -113q0 -50 -46.5 -87.5t-104.5 -37.5q-119 0 -119 111zM1368 1704q0 50 47.5 87.5t108.5 37.5q116 0 116 -113q0 -50 -45 -86.5t-102 -36.5 q-58 0 -91.5 29t-33.5 82z" />
<glyph unicode="&#xd7;" d="M217 219q0 41 76 105q70 59 301 233l41 31q-213 275 -213 321q0 76 63 76q15 0 44.5 -24.5t62.5 -63.5q63 -77 67 -84l35 -45q41 -46 66 -86l160 121q64 50 129 94q143 102 190 102q53 0 53 -55q0 -40 -205 -199q-74 -58 -198 -151l-2 -2h-2l-2 -2l-2 -2l-2 -2l-2 -2 l-3 -2l-2 -2h-2l-2 -2l-2 -3l-2 -2h-2l-2 -2l-2 -2l-4 -2q274 -330 274 -381q0 -21 -19 -37t-52 -16q-55 0 -328 338l-67 -53q-34 -29 -85 -68.5t-65 -50.5q-41 -33 -143 -100q-60 -43 -99 -43q-22 0 -37.5 17t-15.5 46z" />
<glyph unicode="&#xd8;" horiz-adv-x="1536" d="M61 -29q0 34 140 183q-80 133 -80 303q0 161 65 315q65 149 164 266q135 155 297 263.5t219 103.5q48 0 45 -47q0 -2 -12 -23q169 129 377 129q144 0 250 -92q175 135 223 135q18 0 29.5 -4.5t16 -12.5t6 -14t1.5 -14q0 -13 -27 -39t-116 -102l-53 -45q63 -114 63 -272 q0 -173 -80 -365q-80 -189 -213 -346q-132 -156 -323 -258q-189 -101 -391 -101q-229 0 -369 113l-94 -94q-43 -43 -68 -43q-70 0 -70 61zM377 330l516 489q307 288 506 451q-55 108 -146 108q-110 0 -211 -84q-97 -85 -163 -196q-27 -44 -45 -84q-26 -51 -40.5 -71.5 t-27.5 -20.5q-61 0 -61 77q0 117 81 226q-67 -64 -133 -144q-63 -75 -129 -180q-147 -235 -147 -541v-30zM426 172q67 -94 217 -94t299 104q148 104 254 258q107 155 172 334q68 180 68 324q0 22 -2 28l-461 -426z" />
<glyph unicode="&#xd9;" horiz-adv-x="1435" d="M102 217q0 119 86 283q90 170 193 299q99 121 192 258q89 127 89 176q0 27 -15 27q-81 0 -188 -66q-117 -74 -180 -127q-75 -63 -103 -63q-25 0 -47.5 24t-22.5 57q0 86 103 160q102 73 225 111q124 37 215 37q89 0 150 -50.5t61 -128.5q0 -70 -82 -213 q-92 -158 -180 -280q-102 -149 -178 -287q-82 -149 -82 -227q0 -76 51 -76q147 0 371 217q215 205 454 537q75 135 201 336q49 79 58 92q54 78 106 78q130 0 133 -64q0 -30 -96 -199q-67 -118 -213 -352q-108 -170 -215 -373q-96 -190 -96 -260q0 -51 36 -51q127 0 420 350 q39 45 58 45q25 0 32 -21t-8 -40q-163 -235 -290.5 -351t-243.5 -116q-80 0 -150 64q-67 64 -67 159q0 112 88 275q-385 -502 -594 -502q-127 0 -199 78q-72 81 -72 184zM815 1729q-10 29 9.5 57t56.5 39q13 4 24 4.5t23.5 -4.5t23 -11t25.5 -20.5t27.5 -27.5t32.5 -37 t36.5 -44.5t44.5 -55t51 -62.5q61 -74 64 -97q5 -8 -3.5 -19t-25.5 -15q-7 -2 -13.5 -2t-14 2t-14.5 5t-17 9.5t-18 12t-22 15t-26 17.5q-249 169 -264 234z" />
<glyph unicode="&#xda;" horiz-adv-x="1435" d="M102 217q0 119 86 283q90 170 193 299q99 121 192 258q89 127 89 176q0 27 -15 27q-81 0 -188 -66q-117 -74 -180 -127q-75 -63 -103 -63q-25 0 -47.5 24t-22.5 57q0 86 103 160q102 73 225 111q124 37 215 37q89 0 150 -50.5t61 -128.5q0 -70 -82 -213 q-92 -158 -180 -280q-102 -149 -178 -287q-82 -149 -82 -227q0 -76 51 -76q147 0 371 217q215 205 454 537q75 135 201 336q49 79 58 92q54 78 106 78q130 0 133 -64q0 -30 -96 -199q-67 -118 -213 -352q-108 -170 -215 -373q-96 -190 -96 -260q0 -51 36 -51q127 0 420 350 q39 45 58 45q25 0 32 -21t-8 -40q-163 -235 -290.5 -351t-243.5 -116q-80 0 -150 64q-67 64 -67 159q0 112 88 275q-385 -502 -594 -502q-127 0 -199 78q-72 81 -72 184zM991 1489q4 28 19.5 46t68.5 60q200 163 244 193q77 53 115 53q30 0 52.5 -27t22.5 -63 q0 -52 -86 -102q-9 -5 -39 -24.5t-57 -33.5l-61 -28q-115 -56 -144 -72q-75 -37 -104 -37q-31 0 -31 35z" />
<glyph unicode="&#xdb;" horiz-adv-x="1435" d="M102 217q0 119 86 283q90 170 193 299q99 121 192 258q89 127 89 176q0 27 -15 27q-81 0 -188 -66q-117 -74 -180 -127q-75 -63 -103 -63q-25 0 -47.5 24t-22.5 57q0 86 103 160q102 73 225 111q124 37 215 37q89 0 150 -50.5t61 -128.5q0 -70 -82 -213 q-92 -158 -180 -280q-102 -149 -178 -287q-82 -149 -82 -227q0 -76 51 -76q147 0 371 217q215 205 454 537q75 135 201 336q49 79 58 92q54 78 106 78q130 0 133 -64q0 -30 -96 -199q-67 -118 -213 -352q-108 -170 -215 -373q-96 -190 -96 -260q0 -51 36 -51q127 0 420 350 q39 45 58 45q25 0 32 -21t-8 -40q-163 -235 -290.5 -351t-243.5 -116q-80 0 -150 64q-67 64 -67 159q0 112 88 275q-385 -502 -594 -502q-127 0 -199 78q-72 81 -72 184zM803 1538q0 17 3.5 26t26.5 36t76 75q86 81 230 164q138 78 186 78q77 0 98 -66q20 -72 51 -152 t48.5 -123t15.5 -48q0 -33 -53 -33q-69 0 -125 80q-50 71 -88 176l-64 -31q-95 -43 -192 -112l-35 -23q-113 -73 -139 -76q-14 0 -26.5 9.5t-12.5 19.5z" />
<glyph unicode="&#xdc;" horiz-adv-x="1435" d="M102 217q0 119 86 283q90 170 193 299q99 121 192 258q89 127 89 176q0 27 -15 27q-81 0 -188 -66q-117 -74 -180 -127q-75 -63 -103 -63q-25 0 -47.5 24t-22.5 57q0 86 103 160q102 73 225 111q124 37 215 37q89 0 150 -50.5t61 -128.5q0 -70 -82 -213 q-92 -158 -180 -280q-102 -149 -178 -287q-82 -149 -82 -227q0 -76 51 -76q147 0 371 217q215 205 454 537q75 135 201 336q49 79 58 92q54 78 106 78q130 0 133 -64q0 -30 -96 -199q-67 -118 -213 -352q-108 -170 -215 -373q-96 -190 -96 -260q0 -51 36 -51q127 0 420 350 q39 45 58 45q25 0 32 -21t-8 -40q-163 -235 -290.5 -351t-243.5 -116q-80 0 -150 64q-67 64 -67 159q0 112 88 275q-385 -502 -594 -502q-127 0 -199 78q-72 81 -72 184zM887 1630q0 53 44.5 91t102.5 38q123 0 123 -112q0 -50 -46.5 -87.5t-104.5 -37.5q-119 0 -119 108z M1278 1630q0 51 47.5 89t108.5 38q54 0 85 -29t31 -83q0 -50 -45 -86.5t-102 -36.5q-58 0 -91.5 27.5t-33.5 80.5z" />
<glyph unicode="&#xdd;" horiz-adv-x="1298" d="M106 217q0 92 58.5 214.5t152.5 246.5q54 70 168 208t167 211t53 101q0 27 -15 27q-64 0 -151 -41q-50 -24 -98 -56t-99.5 -71t-77.5 -56q-58 -40 -80 -40t-43.5 20t-21.5 49q0 127 190 232q189 104 346 104q99 0 153 -54.5t54 -156.5q0 -55 -82 -186q-87 -138 -182 -262 q-90 -120 -180 -277q-82 -143 -82 -223q0 -43 11 -59.5t42 -16.5q106 0 416 289q312 288 567 645q69 124 90 156l56 92q56 78 106 78q25 0 40.5 -2t31 -8t23 -19.5t7.5 -34.5q0 -24 -47 -98q-21 -34 -186 -314q-144 -242 -307 -546l-379 -725l-31 -54q-12 -20 -49.5 -40.5 t-77.5 -20.5q-80 0 -80 80q0 68 84 227q94 168 248 414q172 275 254 426q-215 -295 -436 -510q-217 -211 -346 -211q-126 0 -196.5 74t-70.5 188zM1071 1499q4 28 20 46.5t68 60.5q192 156 244 192q77 53 115 53q30 0 52.5 -27t22.5 -63q0 -52 -86 -102q-7 -4 -37.5 -23 t-58.5 -34l-61 -29q-115 -56 -144 -72q-75 -37 -104 -37q-31 0 -31 35z" />
<glyph unicode="&#xde;" horiz-adv-x="1329" d="M66 29q0 62 163 325q-55 58 -55 105q0 63 43 80.5t109 -35.5l206 327l86 142q-16 -7 -143 -72q-11 -6 -28.5 -16.5t-25.5 -15.5t-19.5 -11.5t-18.5 -9t-14.5 -4.5t-14.5 -2q-29 0 -45 20t-16 51q0 90 113.5 160.5t328.5 89.5q127 205 193.5 286t115.5 81q40 0 50 -17 q12 -15 12 -45q0 -27 -141 -264q-13 -27 -21 -37q498 -21 498 -399q0 -210 -217 -385q-218 -176 -545 -176q-155 0 -268 49q-113 -195 -160 -260q-48 -66 -86 -66q-100 0 -100 99zM489 395q82 -49 179 -49q220 0 397 160q178 159 178 342q0 96 -84 143q-83 47 -192 47 q-19 0 -105 -4l-153 -260z" />
<glyph unicode="&#xdf;" horiz-adv-x="1230" d="M92.5 377.5q-6.5 23.5 7.5 42.5l95 129l86 115q21 32 67 81q69 80 137 80q51 0 76 -32l156 223q71 96 125 160q69 81 121 118q120 82 247 82q87 0 150 -69q67 -70 67 -170q0 -79 -42.5 -155t-102.5 -131t-120.5 -100t-103 -76.5t-42.5 -45.5q0 -3 22.5 -28t49 -57t49 -81 t22.5 -94q0 -104 -51 -193q79 61 242 266q33 45 57 45q25 0 32.5 -21t-7.5 -40q-75 -108 -134.5 -178t-136.5 -137q-165 -143 -375 -146h-14q-139 0 -217 47t-78 123q0 72 64 72q11 0 28.5 -15t36 -33t54.5 -33t81 -15q76 0 164 88q90 90 90 200q0 44 -21 89.5t-46.5 76 t-46.5 62t-21 51.5q0 27 66 90q50 50 145 127q83 67 146 145q65 83 65 142q0 78 -63 78q-115 0 -308 -254q-185 -242 -573 -922q-50 -84 -127 -84q-84 0 -84 63q0 27 23 74l22 43q61 101 64 107q14 24 41.5 69t48 78.5t32.5 54.5q82 127 82 160q0 25 -24 25q-21 0 -70 -58 q-48 -57 -166 -221q-27 -41 -57 -41q-24 0 -30.5 23.5z" />
<glyph unicode="&#xe0;" horiz-adv-x="1003" d="M57 219q0 133 103 291q102 155 254 262t288 107q90 0 135 -41t58 -123q30 30 94 30q55 0 75 -27.5t-1 -70.5q-15 -34 -160 -223q-143 -186 -143 -244q0 -39 33 -39q78 0 321 301q42 45 60 45q25 0 32 -21t-8 -40q-309 -444 -469 -444q-63 0 -98 37.5t-35 109.5 q0 69 51 180l-6 2q-53 -86 -111 -157q-45 -59 -133 -121q-82 -58 -168 -58q-79 0 -125.5 60.5t-46.5 183.5zM266 197q0 -45 35 -45q108 0 258 135q155 143 275 340q12 116 -72 116q-91 0 -211 -102q-122 -104 -203 -233q-82 -128 -82 -211zM516 1407q0 31 24 53.5t56 22.5 q24 0 37.5 -9.5t30.5 -39.5q17 -33 28 -66q67 -161 109 -250q49 -110 49 -123q0 -9 -9.5 -17.5t-25.5 -8.5q-10 0 -18 4t-17.5 14.5t-17 20.5t-22.5 30.5t-27 36.5q-197 268 -197 332z" />
<glyph unicode="&#xe1;" horiz-adv-x="1003" d="M57 219q0 133 103 291q102 155 254 262t288 107q90 0 135 -41t58 -123q30 30 94 30q55 0 75 -27.5t-1 -70.5q-15 -34 -160 -223q-143 -186 -143 -244q0 -39 33 -39q78 0 321 301q42 45 60 45q25 0 32 -21t-8 -40q-309 -444 -469 -444q-63 0 -98 37.5t-35 109.5 q0 69 51 180l-6 2q-53 -86 -111 -157q-45 -59 -133 -121q-82 -58 -168 -58q-79 0 -125.5 60.5t-46.5 183.5zM266 197q0 -45 35 -45q108 0 258 135q155 143 275 340q12 116 -72 116q-91 0 -211 -102q-122 -104 -203 -233q-82 -128 -82 -211zM725 1004q0 6 1 11t5 11.5t8 12 t13 15.5t17.5 19t24 26.5t29.5 33.5l62 69q98 114 108 125q105 121 154 121q35 0 55.5 -19t20.5 -47q0 -18 -12 -36t-44 -48l-63 -53l-207 -170q-55 -45 -86 -76q-40 -30 -53 -30q-12 0 -22.5 11t-10.5 24z" />
<glyph unicode="&#xe2;" horiz-adv-x="1003" d="M57 219q0 133 103 291q102 155 254 262t288 107q90 0 135 -41t58 -123q30 30 94 30q55 0 75 -27.5t-1 -70.5q-15 -34 -160 -223q-143 -186 -143 -244q0 -39 33 -39q78 0 321 301q42 45 60 45q25 0 32 -21t-8 -40q-309 -444 -469 -444q-63 0 -98 37.5t-35 109.5 q0 69 51 180l-6 2q-53 -86 -111 -157q-45 -59 -133 -121q-82 -58 -168 -58q-79 0 -125.5 60.5t-46.5 183.5zM266 197q0 -45 35 -45q108 0 258 135q155 143 275 340q12 116 -72 116q-91 0 -211 -102q-122 -104 -203 -233q-82 -128 -82 -211zM512 999q0 22 12 43q18 25 80 93 q282 313 363 313q75 0 84 -78q34 -373 34 -381q0 -16 -10.5 -26.5t-23.5 -10.5q-52 0 -93 92q-35 89 -57 213q-147 -114 -221 -182q-69 -66 -98 -88q-21 -18 -41 -18q-29 0 -29 30z" />
<glyph unicode="&#xe3;" horiz-adv-x="1003" d="M57 219q0 133 103 291q102 155 254 262t288 107q90 0 135 -41t58 -123q30 30 94 30q55 0 75 -27.5t-1 -70.5q-15 -34 -160 -223q-143 -186 -143 -244q0 -39 33 -39q78 0 321 301q42 45 60 45q25 0 32 -21t-8 -40q-309 -444 -469 -444q-63 0 -98 37.5t-35 109.5 q0 69 51 180l-6 2q-53 -86 -111 -157q-45 -59 -133 -121q-82 -58 -168 -58q-79 0 -125.5 60.5t-46.5 183.5zM266 197q0 -45 35 -45q108 0 258 135q155 143 275 340q12 116 -72 116q-91 0 -211 -102q-122 -104 -203 -233q-82 -128 -82 -211zM592 1087q0 57 80 140 q81 84 178 84q38 0 92 -51q56 -50 94 -50q28 0 78 56q51 57 76 57q37 0 37 -37q0 -57 -80 -143q-78 -84 -174 -84q-52 0 -107 49q-51 51 -82 51q-28 0 -77 -55q-47 -53 -78 -53q-37 0 -37 36z" />
<glyph unicode="&#xe4;" horiz-adv-x="1003" d="M51 223q0 206 211 414q211 211 438 211q168 0 177 -127q32 14 73 14q56 0 75.5 -32.5t-5.5 -79.5q-8 -21 -135 -199q-129 -182 -129 -236q0 -36 32 -36q94 0 326 290q42 45 60 45q25 0 32 -21t-8 -40q-305 -434 -479 -434q-61 0 -99 39.5t-38 107.5q0 76 51 172l-4 2 q-66 -92 -82 -114q-28 -38 -86 -99q-106 -112 -236 -112q-78 0 -126 59.5t-48 175.5zM246 209q0 -45 39 -45q212 0 528 491l12 17q-9 55 -84 55q-120 0 -309 -201q-186 -198 -186 -317zM526 1075q0 49 41.5 85t96.5 36q54 0 84 -29t30 -80q0 -49 -43 -83.5t-98 -34.5 q-52 0 -81.5 28t-29.5 78zM872 1075q0 49 42 85t98 36q51 0 80.5 -29t29.5 -80q0 -49 -42 -83.5t-97 -34.5q-50 0 -80.5 28.5t-30.5 77.5z" />
<glyph unicode="&#xe5;" horiz-adv-x="1003" d="M57 219q0 133 103 291q102 155 254 262t288 107q90 0 135 -41t58 -123q30 30 94 30q55 0 75 -27.5t-1 -70.5q-15 -34 -160 -223q-143 -186 -143 -244q0 -39 33 -39q78 0 321 301q42 45 60 45q25 0 32 -21t-8 -40q-309 -444 -469 -444q-63 0 -98 37.5t-35 109.5 q0 69 51 180l-6 2q-53 -86 -111 -157q-45 -59 -133 -121q-82 -58 -168 -58q-79 0 -125.5 60.5t-46.5 183.5zM266 197q0 -45 35 -45q108 0 258 135q155 143 275 340q12 116 -72 116q-91 0 -211 -102q-122 -104 -203 -233q-82 -128 -82 -211zM616 1149q0 86 62.5 150.5 t148.5 72.5q53 33 125 33q160 0 160 -139q0 -115 -98 -203q-94 -88 -211 -88q-85 0 -136 49.5t-51 124.5zM739 1137q0 -50 47 -50q58 0 129 68q79 76 72 127q-4 33 -41 33q-34 0 -74 -15l-49 -32q-42 -29 -63 -59t-21 -72z" />
<glyph unicode="&#xe6;" horiz-adv-x="1220" d="M-8 207q0 125 87 219.5t235 120.5t345 -49q27 52 27 131q0 49 -28.5 78.5t-65.5 29.5q-75 0 -178 -53l-70 -41q-28 -16 -45 -16q-29 0 -45 22t-16 53q0 80 79.5 127.5t217.5 47.5q186 0 251 -185q65 77 158 117q96 41 162 41q93 0 147 -47t54 -133q0 -117 -142 -209 q-140 -91 -385 -70q-28 -61 -28 -129q0 -58 33 -90.5t94 -32.5q209 0 454 303q39 45 60 45q24 0 31 -21t-7 -40q-111 -180 -282 -309q-177 -133 -334 -133q-107 0 -179.5 42t-97.5 119q-49 -78 -128 -127t-154 -49q-109 0 -179.5 69t-70.5 169zM168 174q0 -63 55 -63 q83 0 199 73q119 73 196 238q-95 29 -177.5 11t-143 -63.5t-95 -99.5t-34.5 -96zM836 471q161 -12 270 57q113 70 113 150q0 59 -50 59q-61 0 -170 -80q-103 -75 -163 -186z" />
<glyph unicode="&#xe7;" horiz-adv-x="704" d="M-213 -395q0 53 31.5 86t72.5 33q29 0 29 -31q0 -6 -11 -36t-11 -44q0 -34 24.5 -50t85.5 -16q77 0 139 45q66 45 66 107q0 29 -19 46t-49 17q-9 0 -36 -5t-35 -5q-35 0 -35 41q0 28 31 53q73 53 155 152q-157 47 -157 264q0 125 94 262q100 146 237 230q145 92 273 92 q79 0 124.5 -38.5t45.5 -94.5q0 -55 -37 -99.5t-86 -44.5q-45 0 -45 37q0 22 21.5 64.5t21.5 48.5q0 22 -35 22q-62 0 -156 -88q-97 -88 -170 -207t-73 -206q0 -46 28.5 -73.5t73.5 -27.5q89 0 207 86q114 81 225 217q42 45 60 45q24 0 31 -21t-7 -40q-298 -421 -573 -442 q-63 -82 -123 -134q74 -7 125 -48.5t51 -114.5q0 -112 -102 -189q-103 -80 -224 -80q-140 0 -205 62q-63 57 -63 125z" />
<glyph unicode="&#xe8;" horiz-adv-x="749" d="M68 248q0 155 96 301q95 140 224 220.5t247 80.5q93 0 147 -47t54 -133q0 -119 -140 -209q-136 -87 -385 -53q-30 -76 -30 -146q0 -58 33 -90.5t94 -32.5q209 0 454 303q42 45 60 45q25 0 32 -21t-8 -40q-111 -180 -282 -309q-177 -133 -334 -133q-121 0 -191.5 72.5 t-70.5 191.5zM348 481q174 -15 275 49q102 64 102 148q0 59 -49 59q-62 0 -162 -75q-102 -73 -166 -181zM479 1407q0 31 24 53.5t56 22.5q24 0 37.5 -9.5t30.5 -39.5q17 -33 28 -66q68 -163 107 -250q51 -111 51 -123q0 -9 -9.5 -17.5t-25.5 -8.5q-10 0 -18 4t-17.5 14.5 t-17 20.5t-22.5 30.5t-27 36.5q-197 268 -197 332z" />
<glyph unicode="&#xe9;" horiz-adv-x="749" d="M68 248q0 155 96 301q95 140 224 220.5t247 80.5q93 0 147 -47t54 -133q0 -119 -140 -209q-136 -87 -385 -53q-30 -76 -30 -146q0 -58 33 -90.5t94 -32.5q209 0 454 303q42 45 60 45q25 0 32 -21t-8 -40q-111 -180 -282 -309q-177 -133 -334 -133q-121 0 -191.5 72.5 t-70.5 191.5zM348 481q174 -15 275 49q102 64 102 148q0 59 -49 59q-62 0 -162 -75q-102 -73 -166 -181zM621 1004q0 17 15.5 37t80.5 92q71 79 84 94l80 92l61 63q66 66 100 66t55 -19.5t21 -46.5q0 -32 -55 -84l-64 -53l-206 -170q-55 -45 -86 -76q-41 -30 -54 -30 q-12 0 -22 11t-10 24z" />
<glyph unicode="&#xea;" horiz-adv-x="749" d="M68 248q0 155 96 301q95 140 224 220.5t247 80.5q93 0 147 -47t54 -133q0 -119 -140 -209q-136 -87 -385 -53q-30 -76 -30 -146q0 -58 33 -90.5t94 -32.5q209 0 454 303q42 45 60 45q25 0 32 -21t-8 -40q-111 -180 -282 -309q-177 -133 -334 -133q-121 0 -191.5 72.5 t-70.5 191.5zM348 481q174 -15 275 49q102 64 102 148q0 59 -49 59q-62 0 -162 -75q-102 -73 -166 -181zM408 999q0 22 12 43q18 25 80 93q282 313 362 313q75 0 84 -78q10 -107 19 -205.5t12.5 -136.5t3.5 -39q0 -16 -11 -26.5t-24 -10.5q-51 0 -92 92q-35 89 -57 213 q-139 -104 -222 -182q-69 -66 -98 -88q-21 -18 -41 -18q-28 0 -28 30z" />
<glyph unicode="&#xeb;" horiz-adv-x="749" d="M68 248q0 155 96 301q95 140 224 220.5t247 80.5q93 0 147 -47t54 -133q0 -119 -140 -209q-136 -87 -385 -53q-30 -76 -30 -146q0 -58 33 -90.5t94 -32.5q209 0 454 303q42 45 60 45q25 0 32 -21t-8 -40q-111 -180 -282 -309q-177 -133 -334 -133q-121 0 -191.5 72.5 t-70.5 191.5zM348 481q174 -15 275 49q102 64 102 148q0 59 -49 59q-62 0 -162 -75q-102 -73 -166 -181zM422 1075q0 49 41.5 85t95.5 36q51 0 82 -29t31 -80q0 -49 -42.5 -83.5t-97.5 -34.5q-51 0 -80.5 27.5t-29.5 78.5zM768 1075q0 49 41.5 85t97.5 36q51 0 81 -29 t30 -80q0 -49 -43 -83.5t-98 -34.5q-50 0 -79.5 28.5t-29.5 77.5z" />
<glyph unicode="&#xec;" horiz-adv-x="436" d="M-23 141q0 88 136 301l180 275q59 86 135 86q44 0 63 -15.5t19 -50.5q0 -31 -35 -80q-9 -17 -35 -51l-98 -135q-64 -90 -74 -106l-51 -78q-49 -74 -49 -119q0 -31 33 -31q105 0 348 305q42 45 59 45q25 0 32.5 -21t-7.5 -40q-159 -226 -276 -332t-224 -106 q-69 0 -112.5 42t-43.5 111zM270 1407q0 29 25 52.5t57 23.5q25 0 39 -10t27 -39q17 -33 28 -66q67 -161 109 -250q49 -110 49 -123q0 -9 -9.5 -17.5t-25.5 -8.5q-10 0 -18 4t-17.5 14.5t-17 20.5t-22.5 30.5t-27 36.5q-197 268 -197 332z" />
<glyph unicode="&#xed;" horiz-adv-x="436" d="M-23 141q0 88 136 301l180 275q59 86 135 86q44 0 63 -15.5t19 -50.5q0 -31 -35 -80q-9 -17 -35 -51l-98 -135q-64 -90 -74 -106l-51 -78q-49 -74 -49 -119q0 -31 33 -31q105 0 348 305q42 45 59 45q25 0 32.5 -21t-7.5 -40q-159 -226 -276 -332t-224 -106 q-69 0 -112.5 42t-43.5 111zM479 1004q0 7 2.5 13.5t5.5 12t12.5 16.5t18 20t26.5 29t34 38l61 69q79 92 109 125q105 121 153 121q35 0 55.5 -19t20.5 -47q0 -32 -55 -84l-64 -53l-207 -170q-55 -45 -86 -76q-41 -30 -53 -30t-22.5 11t-10.5 24z" />
<glyph unicode="&#xee;" horiz-adv-x="436" d="M-23 141q0 88 136 301l180 275q59 86 135 86q44 0 63 -15.5t19 -50.5q0 -31 -35 -80q-9 -17 -35 -51l-98 -135q-64 -90 -74 -106l-51 -78q-49 -74 -49 -119q0 -31 33 -31q105 0 348 305q42 45 59 45q25 0 32.5 -21t-7.5 -40q-159 -226 -276 -332t-224 -106 q-69 0 -112.5 42t-43.5 111zM266 999q0 20 13 43q22 30 79 93q282 313 363 313q78 0 84 -78q10 -107 19 -205.5t12.5 -136.5t3.5 -39q0 -16 -11 -26.5t-24 -10.5q-51 0 -92 92q-37 93 -58 213q-147 -114 -221 -182q-69 -66 -98 -88q-21 -18 -41 -18q-29 0 -29 30z" />
<glyph unicode="&#xef;" horiz-adv-x="436" d="M-23 141q0 88 136 301l180 275q59 86 135 86q44 0 63 -15.5t19 -50.5q0 -31 -35 -80q-9 -17 -35 -51l-98 -135q-64 -90 -74 -106l-51 -78q-49 -74 -49 -119q0 -31 33 -31q105 0 348 305q42 45 59 45q25 0 32.5 -21t-7.5 -40q-159 -226 -276 -332t-224 -106 q-69 0 -112.5 42t-43.5 111zM281 1075q0 49 41.5 85t97.5 36q51 0 81.5 -29t30.5 -80q0 -49 -43 -83.5t-98 -34.5q-51 0 -80.5 27.5t-29.5 78.5zM627 1075q0 49 41.5 85t97.5 36q51 0 81 -29t30 -80q0 -49 -42.5 -83.5t-97.5 -34.5q-50 0 -80 28.5t-30 77.5z" />
<glyph unicode="&#xf0;" horiz-adv-x="856" d="M68 266q0 119 82 250q81 130 223 227q145 97 282 97q123 0 144 -86q18 82 18 174q0 62 -10 147q-81 -38 -131 -57q-119 -49 -150 -49q-45 0 -45 45q0 40 45 55l258 102q-31 85 -77 152q-45 68 -45 94q0 64 100 64q57 0 112.5 -65.5t90.5 -174.5l157 59q56 15 68 -14 q13 -31 -27 -49l-178 -78q21 -99 21 -186q0 -203 -62.5 -392t-165.5 -321q-100 -126 -216.5 -199t-225.5 -73q-127 0 -197.5 76t-70.5 202zM254 203q0 -72 70 -72q87 0 225 141q144 147 213 349q9 98 -80 98q-136 0 -283 -187q-145 -189 -145 -329z" />
<glyph unicode="&#xf1;" horiz-adv-x="929" d="M-66 70q0 43 68 170l252 465q55 98 127 98q86 0 86 -47q0 -28 -23 -70l-16 -33l-53 -96l4 -6q94 141 207.5 226t220.5 85q67 0 112.5 -46t45.5 -114q0 -57 -52 -145q-65 -109 -112 -168l-111 -147q-51 -66 -51 -84q0 -31 29 -31q57 0 161 90q101 85 213 225q42 45 60 45 q24 0 31 -21t-7 -40q-311 -446 -526 -446q-64 0 -104.5 39t-40.5 114q0 62 51 148q55 93 110 159q50 57 113 142q51 68 51 98q0 45 -37 45q-116 0 -297 -178q-176 -176 -331 -484q-34 -63 -101 -63q-80 0 -80 70zM549 1087q0 57 80 140q81 84 178 84q38 0 92 -51 q56 -50 94 -50q30 0 80 56q48 57 74 57q17 0 28 -10t11 -27q0 -57 -80 -143q-81 -84 -176 -84q-52 0 -107 49q-51 51 -82 51q-28 0 -77 -55q-47 -53 -78 -53q-37 0 -37 36z" />
<glyph unicode="&#xf2;" horiz-adv-x="897" d="M39 227q0 138 96 287q95 151 246 246q148 98 297 98q78 0 128.5 -46t45.5 -110q59 -21 59 -120q0 -15 -2 -17q67 5 132.5 36.5t106.5 60t48 28.5q21 0 20 -23q0 -30 -38 -67q-54 -54 -136.5 -90.5t-162.5 -42.5q-74 -170 -248 -338q-170 -164 -338 -164q-108 0 -182 74 q-72 78 -72 188zM252 219q0 -92 82 -92q106 0 244 117q139 118 188 225q-109 15 -109 96q0 50 39 90.5t92 51.5q-3 43 -69 43q-127 -3 -297 -191t-170 -340zM471 1407q0 29 25 52.5t57 23.5q24 0 38 -9.5t27 -39.5q20 -40 29 -66q67 -161 109 -250q49 -110 49 -123 q0 -9 -9.5 -17.5t-25.5 -8.5q-10 0 -18 4t-17.5 14.5t-17 20.5t-22.5 30.5t-27 36.5q-197 268 -197 332z" />
<glyph unicode="&#xf3;" horiz-adv-x="897" d="M39 227q0 138 96 287q95 151 246 246q148 98 297 98q78 0 128.5 -46t45.5 -110q59 -21 59 -120q0 -15 -2 -17q67 5 132.5 36.5t106.5 60t48 28.5q21 0 20 -23q0 -30 -38 -67q-54 -54 -136.5 -90.5t-162.5 -42.5q-74 -170 -248 -338q-170 -164 -338 -164q-108 0 -182 74 q-72 78 -72 188zM252 219q0 -92 82 -92q106 0 244 117q139 118 188 225q-109 15 -109 96q0 50 39 90.5t92 51.5q-3 43 -69 43q-127 -3 -297 -191t-170 -340zM680 1004q0 6 1 11t5 11.5t8 12t13 15.5t17.5 19t24 26.5t29.5 33.5l62 69q98 114 108 125q105 121 154 121 q35 0 55.5 -19t20.5 -47q0 -18 -12 -36t-44 -48l-63 -53l-207 -170q-55 -45 -86 -76q-40 -30 -53 -30q-12 0 -22.5 11t-10.5 24z" />
<glyph unicode="&#xf4;" horiz-adv-x="897" d="M39 227q0 138 96 287q95 151 246 246q148 98 297 98q78 0 128.5 -46t45.5 -110q59 -21 59 -120q0 -15 -2 -17q67 5 132.5 36.5t106.5 60t48 28.5q21 0 20 -23q0 -30 -38 -67q-54 -54 -136.5 -90.5t-162.5 -42.5q-74 -170 -248 -338q-170 -164 -338 -164q-108 0 -182 74 q-72 78 -72 188zM252 219q0 -92 82 -92q106 0 244 117q139 118 188 225q-109 15 -109 96q0 50 39 90.5t92 51.5q-3 43 -69 43q-127 -3 -297 -191t-170 -340zM467 999q0 22 12 43q18 25 80 93q282 313 363 313q78 0 84 -78q34 -373 34 -381q0 -16 -10.5 -26.5t-23.5 -10.5 q-52 0 -93 92q-35 89 -57 213q-158 -124 -221 -182q-69 -66 -98 -88q-21 -18 -41 -18q-11 0 -20 9t-9 21z" />
<glyph unicode="&#xf5;" horiz-adv-x="897" d="M39 227q0 138 96 287q95 151 246 246q148 98 297 98q78 0 128.5 -46t45.5 -110q59 -21 59 -120q0 -15 -2 -17q67 5 132.5 36.5t106.5 60t48 28.5q21 0 20 -23q0 -30 -38 -67q-54 -54 -136.5 -90.5t-162.5 -42.5q-74 -170 -248 -338q-170 -164 -338 -164q-108 0 -182 74 q-72 78 -72 188zM252 219q0 -92 82 -92q106 0 244 117q139 118 188 225q-109 15 -109 96q0 50 39 90.5t92 51.5q-3 43 -69 43q-127 -3 -297 -191t-170 -340zM547 1087q0 57 80 140q81 84 178 84q38 0 92 -51q56 -50 94 -50q30 0 80 56q51 57 74 57q17 0 28 -10t11 -27 q0 -57 -80 -143q-81 -84 -176 -84q-52 0 -107 49q-51 51 -82 51q-28 0 -77 -55q-47 -53 -78 -53q-37 0 -37 36z" />
<glyph unicode="&#xf6;" horiz-adv-x="897" d="M39 227q0 138 96 287q95 151 246 246q148 98 297 98q78 0 128.5 -46t45.5 -110q59 -21 59 -120q0 -15 -2 -17q67 5 132.5 36.5t106.5 60t48 28.5q21 0 20 -23q0 -30 -38 -67q-54 -54 -136.5 -90.5t-162.5 -42.5q-74 -170 -248 -338q-170 -164 -338 -164q-108 0 -182 74 q-72 78 -72 188zM252 219q0 -92 82 -92q106 0 244 117q139 118 188 225q-109 15 -109 96q0 50 39 90.5t92 51.5q-3 43 -69 43q-127 -3 -297 -191t-170 -340zM483 1075q0 49 41.5 85t96.5 36q51 0 81.5 -29t30.5 -80q0 -49 -43 -83.5t-98 -34.5q-51 0 -80 27.5t-29 78.5z M827 1075q0 49 42 85t98 36q51 0 80.5 -29t29.5 -80q0 -49 -42 -83.5t-97 -34.5q-50 0 -80.5 28.5t-30.5 77.5z" />
<glyph unicode="&#xf7;" d="M266 565q-12 75 76 84q292 20 524 17q256 0 324 -19q63 -9 78 -43q14 -39 -21 -57q-29 -16 -102 -19l-240 -6q-212 -4 -311 -10q-231 -3 -244 -2q-69 -3 -84 55zM489 199q0 47 44.5 87t95.5 40q112 0 112 -99q0 -48 -45 -90q-46 -43 -96 -43q-51 0 -81 28t-30 77z M772 924q0 47 36.5 81.5t86.5 34.5q51 0 84 -28t33 -76q0 -47 -36.5 -82t-86.5 -35t-83.5 29t-33.5 76z" />
<glyph unicode="&#xf8;" horiz-adv-x="905" d="M-63 -68q0 36 141 168q-33 59 -33 138q0 142 94 288q95 151 246 246q148 98 297 98q107 0 156 -79q176 161 219 161q39 0 39 -32q0 -22 -105 -117l-55 -49l-59 -56q43 -30 43 -112q0 -15 -2 -17q66 5 132.5 35.5t107.5 58t46 27.5q21 0 21 -23q-2 -31 -37 -67 q-53 -53 -135.5 -88t-165.5 -41q-76 -174 -246 -338t-340 -164q-81 0 -145 43q-125 -119 -150 -127q-12 -4 -16 -4q-53 0 -53 51zM266 274l238 215l278 252q-22 19 -57 19q-120 -3 -276 -166t-183 -320zM295 145q18 -12 47 -12q105 0 244 115q139 118 188 225q-63 6 -90 43 l-78 -74z" />
<glyph unicode="&#xf9;" horiz-adv-x="950" d="M18 184q0 121 119 301l70 99q97 134 108 153q34 49 52 62.5t69 17.5q71 0 94.5 -30.5t-4.5 -79.5q-2 -3 -90 -119q-79 -100 -151 -217q-70 -110 -70 -174q0 -56 57 -56q84 0 195 129q109 130 342 467q4 5 9 12.5l7 10.5l5 7.5t5 6.5t4.5 5t5 5t5.5 4.5t8 6.5 q16 16 31.5 19t50.5 3q62 0 85 -30t-3 -68q-8 -16 -166 -250t-158 -281q0 -36 39 -36q88 0 326 290q36 45 59 45q24 0 31.5 -21t-6.5 -40q-156 -220 -271.5 -327t-211.5 -107q-61 0 -96.5 38t-35.5 109q0 46 56 170l-4 4q-85 -133 -164 -221q-103 -112 -221 -112 q-83 0 -132 50t-49 154zM479 1407q0 29 25 52.5t57 23.5q25 0 39 -10t27 -39q17 -33 28 -66q67 -161 109 -250q49 -110 49 -123q0 -8 -10 -17t-23 -9t-24.5 8t-19.5 18t-26.5 35.5t-33.5 44.5q-197 268 -197 332z" />
<glyph unicode="&#xfa;" horiz-adv-x="950" d="M18 184q0 121 119 301l70 99q97 134 108 153q34 49 52 62.5t69 17.5q71 0 94.5 -30.5t-4.5 -79.5q-2 -3 -90 -119q-79 -100 -151 -217q-70 -110 -70 -174q0 -56 57 -56q84 0 195 129q109 130 342 467q4 5 9 12.5l7 10.5l5 7.5t5 6.5t4.5 5t5 5t5.5 4.5t8 6.5 q16 16 31.5 19t50.5 3q62 0 85 -30t-3 -68q-8 -16 -166 -250t-158 -281q0 -36 39 -36q88 0 326 290q36 45 59 45q24 0 31.5 -21t-6.5 -40q-156 -220 -271.5 -327t-211.5 -107q-61 0 -96.5 38t-35.5 109q0 46 56 170l-4 4q-85 -133 -164 -221q-103 -112 -221 -112 q-83 0 -132 50t-49 154zM690 1004q0 9 2 15.5t10 17t16.5 20t28.5 32t39 44.5l84 96l80 90l62 63q66 66 98 66q35 0 56.5 -19.5t21.5 -46.5q0 -32 -55 -84l-64 -53l-209 -170q-55 -45 -86 -76q-41 -30 -53 -30q-31 0 -31 35z" />
<glyph unicode="&#xfb;" horiz-adv-x="950" d="M18 184q0 121 119 301l70 99q97 134 108 153q34 49 52 62.5t69 17.5q71 0 94.5 -30.5t-4.5 -79.5q-2 -3 -90 -119q-79 -100 -151 -217q-70 -110 -70 -174q0 -56 57 -56q84 0 195 129q109 130 342 467q4 5 9 12.5l7 10.5l5 7.5t5 6.5t4.5 5t5 5t5.5 4.5t8 6.5 q16 16 31.5 19t50.5 3q62 0 85 -30t-3 -68q-8 -16 -166 -250t-158 -281q0 -36 39 -36q88 0 326 290q36 45 59 45q24 0 31.5 -21t-6.5 -40q-156 -220 -271.5 -327t-211.5 -107q-61 0 -96.5 38t-35.5 109q0 46 56 170l-4 4q-85 -133 -164 -221q-103 -112 -221 -112 q-83 0 -132 50t-49 154zM475 999q0 22 12 43q18 25 80 93q282 313 363 313q78 0 84 -78l18 -196q19 -170 19 -185q0 -16 -11.5 -26.5t-25.5 -10.5q-51 0 -92 95q-40 94 -58 210q-127 -96 -219 -182q-76 -70 -100 -88q-21 -18 -41 -18q-11 0 -20 9t-9 21z" />
<glyph unicode="&#xfc;" horiz-adv-x="950" d="M18 184q0 121 119 301l70 99q97 134 108 153q34 49 52 62.5t69 17.5q71 0 94.5 -30.5t-4.5 -79.5q-2 -3 -90 -119q-79 -100 -151 -217q-70 -110 -70 -174q0 -56 57 -56q84 0 195 129q109 130 342 467q4 5 9 12.5l7 10.5l5 7.5t5 6.5t4.5 5t5 5t5.5 4.5t8 6.5 q16 16 31.5 19t50.5 3q62 0 85 -30t-3 -68q-8 -16 -166 -250t-158 -281q0 -36 39 -36q88 0 326 290q36 45 59 45q24 0 31.5 -21t-6.5 -40q-156 -220 -271.5 -327t-211.5 -107q-61 0 -96.5 38t-35.5 109q0 46 56 170l-4 4q-85 -133 -164 -221q-103 -112 -221 -112 q-83 0 -132 50t-49 154zM492 1075q0 49 41.5 85t95.5 36q51 0 81.5 -29t30.5 -80q0 -49 -42 -83.5t-97 -34.5q-51 0 -80.5 27.5t-29.5 78.5zM836 1075q0 49 41.5 85t97.5 36q51 0 80.5 -29t29.5 -80q0 -49 -42 -83.5t-97 -34.5q-50 0 -80 28.5t-30 77.5z" />
<glyph unicode="&#xfd;" horiz-adv-x="942" d="M-111 -322q0 65 45.5 109.5t151.5 75.5q245 79 322 110l180 338l-4 2q-85 -133 -164 -221q-103 -112 -221 -112q-83 0 -132 50t-49 154q0 121 119 301l70 99q97 134 108 153q34 49 52 62.5t69 17.5q71 0 94.5 -30.5t-4.5 -79.5q-2 -3 -90 -119q-79 -100 -151 -217 q-70 -110 -70 -174q0 -56 57 -56q84 0 195 129q109 130 342 467q4 5 9 12.5l7 10.5l5 7.5t5 6.5t4.5 5t5 5t5.5 4.5t8 6.5q16 16 31.5 19t50.5 3q63 0 83.5 -31.5t-9.5 -78.5l-324 -568q-17 -24 -31 -49q230 132 396 352q34 47 62 35q23 -9 18 -42q-2 -13 -9 -25 q-186 -277 -536 -447q-112 -201 -127 -242q-50 -105 -131.5 -172t-177.5 -67q-126 0 -195.5 58t-69.5 138zM51 -279q0 -51 94 -51q48 0 82 21q8 5 14 8.5t12 9t10 8.5t9 10t7.5 9.5t8 12t7.5 12.5t9 15.5t9 16.5l35 70q-157 -62 -219 -82q-78 -28 -78 -60zM709 1004 q0 6 1 11t5 11.5t8 12t13 15.5t17.5 19t24 26.5t29.5 33.5l84 96q58 68 80 90l61 63q63 66 98 66t56.5 -20t21.5 -46q0 -32 -55 -84l-63 -53l-209 -170q-55 -45 -86 -76q-41 -30 -54 -30q-12 0 -22 11t-10 24z" />
<glyph unicode="&#xfe;" horiz-adv-x="886" d="M-313 -391q0 27 22 78q5 11 28 51.5t30 56.5q513 974 790 1432q95 158 141 209q47 53 109 53q84 0 84 -68q0 -28 -60 -125q-103 -166 -206 -325q-111 -172 -281 -451l8 -2q123 156 217 231.5t191 75.5q168 0 168 -217q0 -80 -61.5 -182.5t-164.5 -202.5q182 74 297 219 q39 45 60 45q25 0 32 -21t-8 -40q-171 -278 -587 -363q-137 -79 -228 -79q-94 0 -94 82q0 90 119 90q58 0 76 2q141 77 254 231q112 153 112 238q0 65 -51 65q-75 0 -219 -135q-143 -131 -223 -264l-99 -154q-22 -34 -94 -162l-98 -192l-76 -150q-44 -84 -108 -84 q-80 0 -80 58z" />
<glyph unicode="&#xff;" horiz-adv-x="942" d="M-111 -322q0 65 45.5 109.5t151.5 75.5q245 79 322 110l180 338l-4 2q-85 -133 -164 -221q-103 -112 -221 -112q-83 0 -132 50t-49 154q0 121 119 301l70 99q97 134 108 153q34 49 52 62.5t69 17.5q71 0 94.5 -30.5t-4.5 -79.5q-2 -3 -90 -119q-79 -100 -151 -217 q-70 -110 -70 -174q0 -56 57 -56q84 0 195 129q109 130 342 467q4 5 9 12.5l7 10.5l5 7.5t5 6.5t4.5 5t5 5t5.5 4.5t8 6.5q16 16 31.5 19t50.5 3q63 0 83.5 -31.5t-9.5 -78.5l-324 -568q-17 -24 -31 -49q230 132 396 352q34 47 62 35q23 -9 18 -42q-2 -13 -9 -25 q-186 -277 -536 -447q-112 -201 -127 -242q-50 -105 -131.5 -172t-177.5 -67q-126 0 -195.5 58t-69.5 138zM51 -279q0 -51 94 -51q48 0 82 21q8 5 14 8.5t12 9t10 8.5t9 10t7.5 9.5t8 12t7.5 12.5t9 15.5t9 16.5l35 70q-157 -62 -219 -82q-78 -28 -78 -60zM512 1075 q0 49 41.5 85t95.5 36q51 0 82 -29t31 -80q0 -49 -42 -83.5t-97 -34.5q-52 0 -81.5 28t-29.5 78zM856 1075q0 49 41.5 85t97.5 36q51 0 81 -29t30 -80q0 -49 -42 -83.5t-97 -34.5q-50 0 -80.5 28.5t-30.5 77.5z" />
<glyph unicode="&#x152;" horiz-adv-x="1916" d="M195 479q0 397 407 678q409 283 1090 301q37 29 59 29q44 0 47 -27q443 -6 443 -241q0 -59 -43.5 -104.5t-98.5 -45.5q-33 0 -61.5 18t-28.5 41q0 31 29 78q28 45 28 64q0 37 -202 37q-58 0 -133 -7q-71 -119 -277 -452q46 0 100.5 -2t91.5 -4t40 -2q44 -5 60.5 -16 t16.5 -40q0 -40 -53 -55q-91 -22 -356 -43q-95 -160 -189 -330q-110 -199 -121 -217q411 50 670 340q36 45 82 45q38 0 65 -35.5t27 -80.5q0 -158 -262 -297q-261 -138 -717 -138q-353 0 -536 142q-178 144 -178 364zM424 424q0 -167 98 -231q105 -63 277 -66 q20 107 303 547h-47q-111 0 -111 90q0 73 82 82q4 0 37 1t78 2t78 1q183 272 305 426q-290 -49 -541 -170q-246 -119 -403 -301q-156 -181 -156 -381z" />
<glyph unicode="&#x153;" horiz-adv-x="1241" d="M51 223q0 97 51.5 208.5t137.5 203.5q87 95 201 154t221 59q136 0 163 -133q47 50 144 94q93 41 157 41q93 0 147 -47t54 -133q0 -118 -141 -209q-140 -91 -385 -70q-29 -63 -29 -129q0 -58 33 -90.5t94 -32.5q207 0 455 303q39 45 59 45q24 0 31.5 -21t-6.5 -40 q-108 -176 -285 -309t-334 -133q-125 0 -201.5 57.5t-80.5 161.5q-79 -113 -148 -164t-164 -51q-78 0 -126 59.5t-48 175.5zM246 209q0 -45 39 -45q109 0 215 86q107 87 164 192l116 197q-15 88 -78 88q-75 0 -188 -96q-109 -93 -190 -221q-78 -128 -78 -201zM856 471 q161 -12 270 57q113 70 113 150q0 59 -49 59q-61 0 -170 -80q-104 -76 -164 -186z" />
<glyph unicode="&#x178;" horiz-adv-x="1298" d="M106 217q0 92 58.5 214.5t152.5 246.5q54 70 168 208t167 211t53 101q0 27 -15 27q-64 0 -151 -41q-50 -24 -98 -56t-99.5 -71t-77.5 -56q-58 -40 -80 -40t-43.5 20t-21.5 49q0 127 190 232q189 104 346 104q99 0 153 -54.5t54 -156.5q0 -55 -82 -186q-87 -138 -182 -262 q-90 -120 -180 -277q-82 -143 -82 -223q0 -43 11 -59.5t42 -16.5q106 0 416 289q312 288 567 645q69 124 90 156l56 92q56 78 106 78q25 0 40.5 -2t31 -8t23 -19.5t7.5 -34.5q0 -24 -47 -98q-21 -34 -186 -314q-144 -242 -307 -546l-379 -725l-31 -54q-12 -20 -49.5 -40.5 t-77.5 -20.5q-80 0 -80 80q0 68 84 227q94 168 248 414q172 275 254 426q-215 -295 -436 -510q-217 -211 -346 -211q-126 0 -196.5 74t-70.5 188zM954 1622q0 53 46 91t104 38q56 0 88.5 -29t32.5 -84q0 -50 -46.5 -88.5t-103.5 -38.5q-121 0 -121 111zM1348 1622 q0 51 47 89t108 38q54 0 85.5 -29.5t31.5 -83.5q0 -50 -46.5 -87.5t-103.5 -37.5q-56 0 -89 29t-33 82z" />
<glyph unicode="&#x2c6;" horiz-adv-x="700" d="M240 999q0 22 12 43q18 25 80 93q282 313 362 313q75 0 84 -78q10 -107 19 -205.5t12.5 -136.5t3.5 -39q0 -16 -11 -26.5t-24 -10.5q-51 0 -92 92q-35 89 -57 213q-134 -100 -221 -182q-66 -63 -99 -88q-21 -18 -41 -18q-28 0 -28 30z" />
<glyph unicode="&#x2dc;" horiz-adv-x="700" d="M319 1087q0 57 80 140q81 84 179 84q39 0 90 -51q56 -50 96 -50q28 0 78 56q51 57 76 57q36 0 36 -37q0 -57 -80 -143q-78 -84 -174 -84q-51 0 -106 49q-51 51 -82 51q-29 0 -78 -55q-47 -53 -78 -53q-37 0 -37 36z" />
<glyph unicode="&#x2000;" horiz-adv-x="1022" />
<glyph unicode="&#x2001;" horiz-adv-x="2044" />
<glyph unicode="&#x2002;" horiz-adv-x="1022" />
<glyph unicode="&#x2003;" horiz-adv-x="2044" />
<glyph unicode="&#x2004;" horiz-adv-x="681" />
<glyph unicode="&#x2005;" horiz-adv-x="511" />
<glyph unicode="&#x2006;" horiz-adv-x="340" />
<glyph unicode="&#x2007;" horiz-adv-x="340" />
<glyph unicode="&#x2008;" horiz-adv-x="255" />
<glyph unicode="&#x2009;" horiz-adv-x="408" />
<glyph unicode="&#x200a;" horiz-adv-x="113" />
<glyph unicode="&#x2010;" horiz-adv-x="837" d="M289 543q0 65 88 71q110 4 180 4q114 0 231 -6q80 -3 80 -57q0 -40 -51 -55q-31 -8 -190 -25q-178 -16 -219 -16q-66 0 -92.5 20t-26.5 64z" />
<glyph unicode="&#x2011;" horiz-adv-x="837" d="M289 543q0 65 88 71q110 4 180 4q114 0 231 -6q80 -3 80 -57q0 -40 -51 -55q-31 -8 -190 -25q-178 -16 -219 -16q-66 0 -92.5 20t-26.5 64z" />
<glyph unicode="&#x2012;" horiz-adv-x="837" d="M289 543q0 65 88 71q110 4 180 4q114 0 231 -6q80 -3 80 -57q0 -40 -51 -55q-31 -8 -190 -25q-178 -16 -219 -16q-66 0 -92.5 20t-26.5 64z" />
<glyph unicode="&#x2013;" horiz-adv-x="1021" d="M260 559q0 71 80 80q117 6 287 6q280 0 372 -10q80 -3 80 -55q0 -41 -53 -56q-83 -20 -291 -37q-211 -18 -366 -18q-109 0 -109 90z" />
<glyph unicode="&#x2014;" horiz-adv-x="1421" d="M252 563q0 68 82 74q215 10 291 10q740 0 776 -8q86 -3 86 -57q0 -47 -60 -56q-76 -19 -464 -34q-393 -15 -601 -15q-110 0 -110 86z" />
<glyph unicode="&#x2018;" horiz-adv-x="630" d="M412 950q0 155 166 281q170 129 292 129q45 0 45 -35q0 -30 -51 -45q-216 -88 -262 -231q94 -21 94 -101q0 -56 -47 -96.5t-108 -40.5q-58 0 -93.5 37t-35.5 102z" />
<glyph unicode="&#x2019;" horiz-adv-x="630" d="M340 848q0 24 49 45q217 85 264 231q-40 6 -67 32.5t-27 66.5q0 56 47 96.5t109 40.5q58 0 92.5 -37t34.5 -102q0 -103 -86 -203q-83 -94 -188.5 -150.5t-182.5 -56.5q-45 0 -45 37z" />
<glyph unicode="&#x201a;" horiz-adv-x="436" d="M-86 -244q0 30 49 45q217 85 264 232q-94 21 -94 100q0 56 47.5 96.5t108.5 40.5q58 0 93.5 -37t35.5 -102q0 -156 -168 -281q-166 -129 -291 -129q-26 0 -35.5 8t-9.5 27z" />
<glyph unicode="&#x201c;" horiz-adv-x="985" d="M412 1004q0 145 143 270q145 127 262 127q47 0 47 -35q0 -30 -47 -45q-184 -78 -229 -238q41 -6 68.5 -32.5t27.5 -65.5q0 -55 -42.5 -93t-98.5 -38q-61 0 -96 39.5t-35 110.5zM766 975q0 103 86 203q83 94 188 150t183 56q26 0 35.5 -7.5t9.5 -26.5q0 -30 -49 -45 q-218 -86 -265 -232q97 -22 97 -100q0 -56 -47.5 -96.5t-108.5 -40.5q-60 0 -94.5 36.5t-34.5 102.5z" />
<glyph unicode="&#x201d;" horiz-adv-x="985" d="M340 864q0 30 49 45q217 88 264 234q-41 6 -67.5 31.5t-26.5 66.5q0 56 47 96.5t109 40.5q58 0 92.5 -37t34.5 -102q0 -103 -86 -203q-83 -94 -188.5 -150.5t-182.5 -56.5q-26 0 -35.5 8t-9.5 27zM743 850q0 23 48 45q183 73 229 235q-41 6 -68.5 33t-27.5 68 q0 53 42.5 91t98.5 38q61 0 96 -39.5t35 -108.5q0 -145 -145 -272t-260 -127q-28 0 -38 8.5t-10 28.5z" />
<glyph unicode="&#x201e;" horiz-adv-x="790" d="M-98 -244q0 30 49 45q217 85 264 232q-96 21 -96 100q0 56 47 96.5t108 40.5q60 0 94.5 -36.5t34.5 -102.5q0 -103 -86 -203q-83 -94 -188 -150.5t-182 -56.5q-26 0 -35.5 8t-9.5 27zM303 -260q0 30 49 45q183 77 230 238q-41 6 -69 32.5t-28 65.5q0 55 42.5 93t99.5 38 q60 0 95.5 -39.5t35.5 -108.5q0 -144 -146 -272q-145 -127 -260 -127q-49 0 -49 35z" />
<glyph unicode="&#x2022;" horiz-adv-x="1030" d="M418 481q0 98 84 170q87 72 192 72t165.5 -57t60.5 -156q0 -97 -89 -168q-85 -70 -192 -70q-103 0 -162 55.5t-59 153.5z" />
<glyph unicode="&#x2026;" horiz-adv-x="1294" d="M133 102q0 53 43 90t100 37q55 0 87 -30.5t32 -83.5q0 -50 -45.5 -88.5t-101.5 -38.5q-54 0 -84.5 30t-30.5 84zM526 102q0 53 44.5 90t101.5 37q54 0 85 -30t31 -84q0 -50 -45.5 -88.5t-101.5 -38.5q-54 0 -84.5 30t-30.5 84zM922 102q0 53 43 90t100 37q54 0 85.5 -30 t31.5 -84q0 -50 -45 -88.5t-101 -38.5q-54 0 -84 30t-30 84z" />
<glyph unicode="&#x202f;" horiz-adv-x="408" />
<glyph unicode="&#x2039;" horiz-adv-x="878" d="M287 498q0 77 82 114q76 37 120 60q33 17 134 63q249 119 292 113q60 0 60 -47q0 -27 -98 -88q-82 -53 -232 -135q-117 -64 -176 -103q117 -117 156 -164q84 -104 84 -129q0 -17 -13.5 -31t-27.5 -14q-33 0 -86 47l-107 90q-59 53 -86 74q-113 101 -102 150z" />
<glyph unicode="&#x203a;" horiz-adv-x="897" d="M184 176q0 51 92 113q88 62 228 129q134 65 172 92q-96 92 -156 164q-84 96 -84 129q0 17 13.5 31t27.5 14q25 0 84 -47l107 -90l88 -74q115 -100 108 -139q0 -40 -55 -86q-51 -43 -221 -127q-310 -156 -355 -156q-49 0 -49 47z" />
<glyph unicode="&#x205f;" horiz-adv-x="511" />
<glyph unicode="&#x20ac;" horiz-adv-x="1468" d="M147 459q-18 77 76 86q113 7 152 8q8 58 26 111h-98q-75 0 -78 63q-2 38 22 58.5t75 23.5l143 4q133 251 377 416q247 168 469 168q151 0 227 -67t76 -167q0 -91 -82 -143q-77 -51 -154 -51q-23 0 -37 14t-14 37q0 40 55 110q58 70 58 107q0 41 -47 41q-129 0 -306 -133 q-175 -134 -299 -324q361 3 426 -8q54 -12 54 -49q4 -24 -13.5 -38t-56.5 -19q-60 -12 -491 -29q-38 -81 -48 -117q354 3 443 -18q66 -6 80 -45q15 -41 -23 -56q-40 -17 -127 -20l-102 -4q-80 0 -139 -2l-164 -4q-2 -12 -2 -52q0 -167 82 -213q39 -22 73 -29t88 -7 q103 0 224 65q116 62 198 160q41 47 66 47q43 0 43 -45q0 -42 -46 -109t-120 -135q-77 -69 -192.5 -114.5t-229.5 -45.5q-178 0 -311 115q-132 114 -138 354q-99 -3 -129 0q-74 -3 -86 56z" />
<glyph unicode="&#x2122;" horiz-adv-x="993" d="M360 1073v72h359v-72h-141v-328h-78v328h-140zM786 745v400h107l111 -195l106 195h109v-400h-74v310q-109 -186 -117 -205h-51l-117 207v-312h-74z" />
<glyph unicode="&#x25fc;" horiz-adv-x="829" d="M0 0v829h829v-829h-829z" />
<glyph unicode="&#xfb01;" horiz-adv-x="960" d="M-289 -391q0 25 23 78q5 12 27 52t30 56l322 647q112 226 172 338q74 143 159 283q85 141 160 229q72 88 152 141.5t151 53.5q97 0 97 -117q0 -137 -185 -387q-181 -241 -504 -549l-122 -227q18 -43 61 -43q167 0 381 278l180 275q59 86 135 86q44 0 63 -15.5t19 -50.5 q0 -31 -35 -80q-12 -22 -34 -51l-99 -135q-57 -80 -73 -106l-52 -78q-49 -74 -49 -119q0 -31 33 -31q105 0 348 305q42 45 59 45q25 0 32.5 -21t-7.5 -40q-159 -226 -276 -332t-224 -106q-69 0 -112 42t-43 111q0 21 2 27q-160 -148 -279 -148q-73 0 -106 39l-215 -424 q-47 -84 -111 -84q-80 0 -80 58zM348 563q249 261 404 473q149 204 149 285q0 12 -16 12q-55 0 -219 -231q-175 -254 -318 -539zM965 1053q0 44 44.5 80t98.5 36t84.5 -27.5t30.5 -76.5q0 -44 -45 -79.5t-99 -35.5t-84 27t-30 76z" />
<glyph unicode="&#xfb02;" horiz-adv-x="1064" d="M-289 -391q0 25 23 78q5 12 27 52t30 56l322 647q112 226 172 338q74 143 159 283q85 141 160 229q72 88 152 141.5t151 53.5q97 0 97 -117q0 -137 -185 -387q-181 -241 -504 -549l-122 -227q18 -43 61 -43q162 0 379 276q76 207 215 449q138 240 301 418 q162 180 270 180q94 0 94 -117q0 -145 -176 -401q-172 -251 -485 -545q-59 -121 -59 -203q0 -78 45 -78q97 0 340 299q39 45 59 45q24 0 31.5 -21t-6.5 -40q-162 -236 -274.5 -339t-223.5 -103q-184 0 -184 225q0 4 0.5 9.5t1.5 16t2 19.5q-202 -234 -361 -234 q-73 0 -106 39l-215 -424q-47 -84 -111 -84q-80 0 -80 58zM348 563q249 261 404 473q149 204 149 285q0 12 -16 12q-55 0 -219 -231q-175 -254 -318 -539zM897 563q243 255 379 465q137 207 137 293q0 12 -16 12q-102 0 -500 -770z" />
</font>
</defs>
</svg>
